<svg width="28" height="28" viewBox="0 0 28 28" fill="none" xmlns="http://www.w3.org/2000/svg">
<rect x="-1" y="1" width="25.8182" height="25.8182" rx="12.9091" transform="matrix(-1 0 0 1 25.8179 0)" fill="#A3D657" stroke="#ECF6EE" stroke-width="2"/>
<path d="M7.74514 13.0618C7.5512 13.0618 7.45424 13.1588 7.45424 13.3527V15.1855C7.45424 15.3794 7.5512 15.4764 7.74514 15.4764H12.3124C12.39 15.4764 12.4288 15.5152 12.4288 15.5927V20.0727C12.4288 20.2667 12.5257 20.3636 12.7197 20.3636H14.5524C14.7464 20.3636 14.8433 20.2667 14.8433 20.0727V15.5927C14.8433 15.5152 14.8821 15.4764 14.9597 15.4764H19.527C19.7209 15.4764 19.8179 15.3794 19.8179 15.1855V13.3527C19.8179 13.1588 19.7209 13.0618 19.527 13.0618H14.9597C14.8821 13.0618 14.8433 13.023 14.8433 12.9455V8.29091C14.8433 8.09697 14.7464 8 14.5524 8H12.7197C12.5257 8 12.4288 8.09697 12.4288 8.29091V12.9455C12.4288 13.023 12.39 13.0618 12.3124 13.0618H7.74514Z" fill="#1C6229"/>
</svg>
