<svg width="40" height="40" viewBox="0 0 40 40" fill="none" xmlns="http://www.w3.org/2000/svg">
<path d="M18.2167 29.075L18.2101 29.0948L18.189 29.1609L16.9629 32.958C15.8742 31.4822 14.8364 29.8505 14.8001 29.3894L14.9236 29.1609L16.0777 27.0192L18.1288 28.9904L18.2167 29.075Z" fill="#1C6229"/>
<path d="M18.7445 33.2447L18.4928 39.9438C13.5139 39.5732 9.04296 37.3794 5.74524 34.0282C6.32987 31.2556 8.79259 29.1675 11.7362 29.1609L14.2439 29.4093C14.3588 30.4061 16.2329 32.9382 16.8394 33.7355L17.167 34.1656L17.9241 31.8211L18.7445 33.2447Z" fill="#1C6229"/>
<path d="M27.4892 20.6101C27.4892 20.6101 27.4857 20.6129 27.4836 20.615C27.4843 20.6136 27.4843 20.6115 27.485 20.6101H27.4892Z" fill="#1C6229"/>
<path d="M16.3683 15.5248C16.3683 15.9033 16.1523 16.2105 15.8868 16.2105C15.6212 16.2105 15.4052 15.9033 15.4052 15.5248C15.4052 15.1462 15.6212 14.8397 15.8868 14.8397C16.1523 14.8397 16.3683 15.1469 16.3683 15.5248Z" fill="#1C6229"/>
<path d="M18.4281 19.1521C18.0198 18.4228 18.4658 15.9581 18.5596 15.4719L19.1145 15.5783C18.8978 16.7046 18.695 18.4724 18.9209 18.8766C19.0359 19.0814 19.1944 19.1885 19.3529 19.1686C19.4804 19.1534 19.5848 19.0629 19.6198 18.9387L20.1642 19.09C20.0677 19.4355 19.7764 19.6872 19.421 19.7295C19.3853 19.7341 19.3496 19.7361 19.314 19.7361C18.9619 19.7361 18.6362 19.524 18.4281 19.1521Z" fill="#1C6229"/>
<path d="M20.651 21.2105H21.2158C21.2158 21.9953 20.476 22.6341 19.567 22.6341C18.658 22.6341 17.9188 21.9953 17.9188 21.2105H18.4836C18.4836 21.6842 18.9698 22.0687 19.567 22.0687C20.1642 22.0687 20.651 21.6842 20.651 21.2105Z" fill="#1C6229"/>
<path d="M22.5489 15.5248C22.5489 15.9033 22.3336 16.2105 22.068 16.2105C21.8024 16.2105 21.5864 15.9033 21.5864 15.5248C21.5864 15.1462 21.8018 14.8397 22.068 14.8397C22.3342 14.8397 22.5489 15.1469 22.5489 15.5248Z" fill="#1C6229"/>
<path d="M20.7153 29.0036L20.7118 28.9938L20.7125 28.9931L20.7153 29.0036Z" fill="#1C6229"/>
<path d="M33.6061 34.659C30.2779 37.7493 25.8962 39.7199 21.0593 39.9723L20.5592 33.2526L21.3717 31.8773L22.1063 34.0903L22.4307 33.6681C23.0325 32.8853 24.8934 30.3975 25.0077 29.4093L27.5153 29.1609C30.6776 29.1675 33.2857 31.578 33.6061 34.659Z" fill="#1C6229"/>
<path d="M18.2167 29.075L18.2101 29.0948C18.183 29.0611 18.1559 29.0261 18.1295 28.9911L18.2167 29.075Z" fill="white"/>
<path d="M20.7153 29.0036L20.7118 28.9938L20.7125 28.9931L20.7153 29.0036Z" fill="white"/>
<path d="M27.4892 20.6101C27.4892 20.6101 27.4857 20.6129 27.4836 20.615C27.4843 20.6136 27.4843 20.6115 27.485 20.6101H27.4892Z" fill="white"/>
<path d="M16.3683 15.5248C16.3683 15.9033 16.1523 16.2105 15.8868 16.2105C15.6212 16.2105 15.4052 15.9033 15.4052 15.5248C15.4052 15.1462 15.6212 14.8397 15.8868 14.8397C16.1523 14.8397 16.3683 15.1469 16.3683 15.5248Z" fill="white"/>
<path d="M18.4281 19.1521C18.0198 18.4228 18.4658 15.9581 18.5596 15.4719L19.1145 15.5783C18.8978 16.7046 18.695 18.4724 18.9209 18.8766C19.0359 19.0814 19.1944 19.1885 19.3529 19.1686C19.4804 19.1534 19.5848 19.0629 19.6198 18.9387L20.1642 19.09C20.0677 19.4355 19.7764 19.6872 19.421 19.7295C19.3853 19.7341 19.3496 19.7361 19.314 19.7361C18.9619 19.7361 18.6362 19.524 18.4281 19.1521Z" fill="white"/>
<path d="M20.651 21.2105H21.2158C21.2158 21.9953 20.476 22.6341 19.567 22.6341C18.658 22.6341 17.9188 21.9953 17.9188 21.2105H18.4836C18.4836 21.6842 18.9698 22.0687 19.567 22.0687C20.1642 22.0687 20.651 21.6842 20.651 21.2105Z" fill="white"/>
<path d="M22.5489 15.5248C22.5489 15.9033 22.3336 16.2105 22.068 16.2105C21.8024 16.2105 21.5864 15.9033 21.5864 15.5248C21.5864 15.1462 21.8018 14.8397 22.068 14.8397C22.3342 14.8397 22.5489 15.1469 22.5489 15.5248Z" fill="white"/>
<path d="M18.2167 29.075L18.2101 29.0948L18.189 29.1609L16.9629 32.958C15.8742 31.4822 14.8364 29.8505 14.8001 29.3894L14.9236 29.1609L16.0777 27.0192L18.1288 28.9904L18.1295 28.9911L18.2167 29.075Z" fill="white"/>
<path d="M18.7445 33.2447L18.4928 39.9438C13.5139 39.5732 9.04296 37.3794 5.74524 34.0282C6.32987 31.2556 8.79259 29.1675 11.7362 29.1609L14.2439 29.4093C14.3588 30.4061 16.2329 32.9382 16.8394 33.7355L17.167 34.1656L17.9241 31.8211L18.7445 33.2447Z" fill="white"/>
<path d="M20.7153 29.0036L20.7118 28.9938L20.7125 28.9931L20.7153 29.0036Z" fill="white"/>
<path d="M33.6061 34.659C30.2779 37.7493 25.8962 39.7199 21.0593 39.9723L20.5592 33.2526L21.3717 31.8773L22.1063 34.0903L22.4307 33.6681C23.0325 32.8853 24.8934 30.3975 25.0077 29.4093L27.5153 29.1609C30.6776 29.1675 33.2857 31.578 33.6061 34.659Z" fill="white"/>
<path d="M20.7125 28.9931L20.7118 28.9938L20.7153 29.0036L20.7125 28.9931Z" fill="#1C6229"/>
<path d="M16.3683 15.5248C16.3683 15.9033 16.1523 16.2105 15.8868 16.2105C15.6212 16.2105 15.4052 15.9033 15.4052 15.5248C15.4052 15.1462 15.6212 14.8397 15.8868 14.8397C16.1523 14.8397 16.3683 15.1469 16.3683 15.5248Z" fill="#1C6229"/>
<path d="M22.5489 15.5248C22.5489 15.9033 22.3336 16.2105 22.068 16.2105C21.8024 16.2105 21.5864 15.9033 21.5864 15.5248C21.5864 15.1462 21.8018 14.8397 22.068 14.8397C22.3342 14.8397 22.5489 15.1469 22.5489 15.5248Z" fill="#1C6229"/>
<path d="M21.2158 21.2105C21.2158 21.9953 20.476 22.6341 19.567 22.6341C18.658 22.6341 17.9188 21.9953 17.9188 21.2105H18.4836C18.4836 21.6842 18.9698 22.0687 19.567 22.0687C20.1642 22.0687 20.651 21.6842 20.651 21.2105H21.2158Z" fill="#1C6229"/>
<path d="M20.1642 19.09C20.0677 19.4355 19.7764 19.6872 19.421 19.7295C19.3853 19.7341 19.3496 19.7361 19.314 19.7361C18.9619 19.7361 18.6362 19.524 18.4281 19.1521C18.0198 18.4228 18.4658 15.9581 18.5596 15.4719L19.1145 15.5783C18.8978 16.7046 18.695 18.4724 18.9209 18.8766C19.0359 19.0814 19.1944 19.1885 19.3529 19.1686C19.4804 19.1534 19.5848 19.0629 19.6198 18.9387L20.1642 19.09Z" fill="#1C6229"/>
<path d="M20.7153 29.0036L20.7118 28.9938L20.7125 28.9931L20.7153 29.0036Z" fill="#1C6229"/>
<path d="M20.0003 0C8.95444 0 0 8.95444 0 20.0003C0 25.223 2.00228 29.9787 5.2815 33.5413C5.35681 33.6232 5.43278 33.7045 5.51007 33.7851C5.58736 33.867 5.66597 33.9482 5.74524 34.0282C6.32987 31.2556 8.79259 29.1675 11.7362 29.1609L14.2439 29.4093C14.3588 30.4061 16.2329 32.9382 16.8394 33.7355L17.167 34.1656L17.9241 31.8211L18.7445 33.2447L18.4928 39.9438C18.9903 39.9808 19.493 40 20.0003 40C20.3557 40 20.7085 39.9908 21.0593 39.9723L20.5592 33.2526L21.3717 31.8773L22.1063 34.0903L22.4307 33.6681C23.0325 32.8853 24.8934 30.3975 25.0077 29.4093L27.5153 29.1609C30.6776 29.1675 33.2857 31.578 33.6061 34.659C33.6919 34.5798 33.7771 34.4992 33.861 34.4179C33.9449 34.338 34.0275 34.2567 34.1094 34.1755C37.748 30.5534 40 25.5395 40 20.0003C40 8.95444 31.0456 0 20.0003 0ZM13.0475 8.58318C14.5643 6.83919 16.764 5.95465 19.5848 5.95465C22.4056 5.95465 24.6866 6.84382 26.1928 8.59705C28.8748 11.7184 28.4943 16.6947 28.3728 17.7867C28.2136 17.6876 28.0345 17.6175 27.8436 17.5832C27.8436 16.445 27.656 15.4151 27.3251 14.4922C27.1493 14.0021 26.9333 13.5423 26.683 13.1129C26.683 13.1129 26.6827 13.1125 26.6823 13.1116C26.1558 12.048 25.4628 11.1767 24.6173 10.5154C23.958 10.0002 23.2062 9.61437 22.3673 9.35938C21.6115 9.02974 20.8347 8.80118 20.0783 8.675L19.6344 7.10608C19.602 6.99311 19.4989 6.9145 19.3813 6.91384H19.38C19.2624 6.91384 19.1594 6.99113 19.1264 7.10409L18.6197 8.84015C17.1201 9.01125 15.8174 9.49613 14.7453 10.2822C13.8217 10.9594 13.064 11.8624 12.4939 12.9663C11.4429 15.0022 11.3286 17.1327 11.3194 17.7378C11.2091 17.7741 11.1027 17.8336 11.0056 17.9016C10.8887 17.9835 10.785 18.078 10.703 18.1599C10.6945 18.0734 10.6852 17.967 10.6766 17.8428C10.5564 16.2131 10.4725 11.5446 13.0475 8.58318ZM18.2101 29.0948L18.189 29.1609L16.9629 32.958C15.8742 31.4822 14.8364 29.8505 14.8001 29.3894L14.9236 29.1609L16.0777 27.0192L18.1288 28.9904L18.1295 28.9911L18.2167 29.075L18.2101 29.0948ZM20.7118 28.9938L20.7125 28.9931L20.7153 29.0036L20.7118 28.9938ZM22.3052 32.8972L21.0652 29.1609L21.0361 29.0737L23.1739 27.0199L24.4521 29.3901C24.4138 29.8472 23.3846 31.4499 22.3052 32.8972ZM27.4836 20.615C27.4836 20.615 27.4844 20.6114 27.485 20.6101H27.4892C27.4892 20.6101 27.4857 20.6129 27.4836 20.615ZM27.5735 20.0479C27.5061 20.0479 27.4327 20.0386 27.3502 20.0188L27.0853 19.9547L27.0119 20.217C26.4207 22.3303 24.9277 23.9983 23.4487 25.5256C23.2089 25.7727 23.0516 26.0798 22.9915 26.4108L20.7574 28.5584L20.7547 28.5492L19.6112 29.546L18.5596 28.6053L18.5556 28.6172L16.3743 26.5205L16.3703 26.5165C16.3214 26.459 16.2719 26.4062 16.223 26.3566C16.1371 26.06 15.97 25.7865 15.7381 25.5712C13.753 23.7235 12.5137 22.2596 12.0566 20.2461L11.9972 19.9825L11.7309 20.0301C11.6636 20.0426 11.6094 20.0479 11.5605 20.0479C11.03 20.0479 10.5987 19.6165 10.5987 19.0867C10.5987 18.5569 11.0201 18.1348 11.5413 18.1249H11.8413L11.8479 17.8494C11.8525 17.6499 11.8617 17.424 11.873 17.2047C11.873 17.2014 11.873 17.1981 11.8736 17.1941C12.0229 15.1826 12.9768 9.91627 18.8489 9.34683C18.9566 9.33692 19.0471 9.26161 19.0768 9.1579L19.3761 8.13397L19.6654 9.15592C19.6965 9.26426 19.7922 9.34155 19.9045 9.34815C19.9224 9.34815 21.7311 9.4664 23.5352 10.5749C24.4138 11.1146 25.1398 11.7851 25.7119 12.5818C25.7125 12.5831 25.7139 12.5838 25.7139 12.5851C26.5442 13.8759 27.0952 15.5948 27.2861 17.8494L27.2927 18.1249H27.5939C28.1151 18.1355 28.5359 18.5629 28.5359 19.0867C28.5359 19.6106 28.1039 20.0479 27.5735 20.0479Z" fill="#1C6229"/>
<path d="M24.4521 29.3901C24.4138 29.8472 23.3846 31.4499 22.3052 32.8972L21.0652 29.1609L21.0361 29.0737L23.1739 27.0199L24.4521 29.3901Z" fill="white"/>
<path d="M27.5939 18.1249H27.2927L27.2861 17.8494C27.0952 15.5948 26.5442 13.8759 25.7139 12.5851C25.7139 12.5838 25.7125 12.5831 25.7119 12.5818C25.1398 11.7851 24.4138 11.1146 23.5352 10.5749C21.7311 9.4664 19.9224 9.34815 19.9045 9.34815C19.7922 9.34155 19.6965 9.26426 19.6654 9.15592L19.3761 8.13397L19.0768 9.1579C19.0471 9.26161 18.9566 9.33692 18.8489 9.34683C12.9768 9.91627 12.0229 15.1826 11.8736 17.1941C11.873 17.1981 11.873 17.2014 11.873 17.2047C11.8617 17.424 11.8525 17.6499 11.8479 17.8494L11.8413 18.1249H11.5413C11.0201 18.1348 10.5987 18.5629 10.5987 19.0867C10.5987 19.6106 11.03 20.0479 11.5605 20.0479C11.6094 20.0479 11.6636 20.0426 11.7309 20.0301L11.9972 19.9825L12.0566 20.2461C12.5137 22.2596 13.753 23.7235 15.7381 25.5712C15.97 25.7865 16.1371 26.06 16.223 26.3566C16.2719 26.4062 16.3208 26.459 16.3697 26.5158L16.3703 26.5165L16.3743 26.5205L18.5556 28.6172L18.5596 28.6053L19.6112 29.546L20.7547 28.5492L20.7574 28.5584L22.9915 26.4108C23.0516 26.0798 23.2089 25.7727 23.4487 25.5256C24.9277 23.9983 26.4207 22.3303 27.0119 20.217L27.0853 19.9547L27.3502 20.0188C27.4327 20.0386 27.5061 20.0479 27.5735 20.0479C28.1039 20.0479 28.5359 19.6165 28.5359 19.0867C28.5359 18.5569 28.1151 18.1355 27.5939 18.1249ZM15.8868 16.2105C15.6212 16.2105 15.4052 15.9033 15.4052 15.5248C15.4052 15.1462 15.6212 14.8397 15.8868 14.8397C16.1523 14.8397 16.3683 15.1469 16.3683 15.5248C16.3683 15.9033 16.1523 16.2105 15.8868 16.2105ZM18.5596 15.4719L19.1145 15.5783C18.8978 16.7046 18.695 18.4724 18.9209 18.8766C19.0359 19.0814 19.1944 19.1885 19.3529 19.1686C19.4804 19.1534 19.5848 19.0629 19.6198 18.9387L20.1642 19.09C20.0677 19.4355 19.7764 19.6872 19.421 19.7295C19.3853 19.7341 19.3496 19.7361 19.314 19.7361C18.9619 19.7361 18.6362 19.524 18.4281 19.1521C18.0198 18.4228 18.4658 15.9581 18.5596 15.4719ZM19.567 22.6341C18.658 22.6341 17.9188 21.9953 17.9188 21.2105H18.4836C18.4836 21.6842 18.9698 22.0687 19.567 22.0687C20.1642 22.0687 20.651 21.6842 20.651 21.2105H21.2158C21.2158 21.9953 20.476 22.6341 19.567 22.6341ZM22.068 16.2105C21.8024 16.2105 21.5864 15.9033 21.5864 15.5248C21.5864 15.1462 21.8018 14.8397 22.068 14.8397C22.3342 14.8397 22.5489 15.1469 22.5489 15.5248C22.5489 15.9033 22.3336 16.2105 22.068 16.2105Z" fill="white"/>
<path d="M28.3728 17.7867C28.2136 17.6876 28.0345 17.6175 27.8436 17.5832C27.8436 16.445 27.656 15.4151 27.3251 14.4922C27.1493 14.0021 26.9333 13.5423 26.683 13.1129C26.683 13.1129 26.6827 13.1125 26.6823 13.1116C26.1558 12.048 25.4628 11.1767 24.6173 10.5154C23.958 10.0002 23.2062 9.61437 22.3673 9.35938C21.6115 9.02974 20.8347 8.80118 20.0783 8.675L19.6344 7.10608C19.602 6.99311 19.4989 6.9145 19.3813 6.91384H19.38C19.2624 6.91384 19.1594 6.99113 19.1264 7.10409L18.6197 8.84015C17.1201 9.01125 15.8174 9.49613 14.7453 10.2822C13.8217 10.9594 13.064 11.8624 12.4939 12.9663C11.4429 15.0022 11.3286 17.1327 11.3194 17.7378C11.2091 17.7741 11.1027 17.8336 11.0056 17.9016C10.8887 17.9835 10.785 18.078 10.703 18.1599C10.6945 18.0734 10.6852 17.967 10.6766 17.8428C10.5564 16.2131 10.4725 11.5446 13.0475 8.58318C14.5643 6.83919 16.764 5.95465 19.5848 5.95465C22.4056 5.95465 24.6866 6.84382 26.1928 8.59705C28.8748 11.7184 28.4943 16.6947 28.3728 17.7867Z" fill="#A3D657"/>
</svg>
