<svg width="40" height="40" viewBox="0 0 40 40" fill="none" xmlns="http://www.w3.org/2000/svg">
<path d="M23.8466 11.9724C21.719 11.9724 19.6587 11.2896 17.9272 9.98972C17.3911 9.58678 17.2815 8.82304 17.6845 8.2869C19.2709 6.1727 21.5858 4.80202 24.2041 4.42942C26.8224 4.05682 29.4272 4.72446 31.5414 6.31095C31.801 6.50653 31.9696 6.79145 32.0151 7.11179C32.0607 7.43381 31.978 7.75414 31.7842 8.01378C30.1977 10.128 27.8828 11.4987 25.2645 11.8713C24.7908 11.9387 24.317 11.9724 23.8466 11.9724ZM19.5879 8.88373C21.198 9.89868 23.0964 10.3067 25.0032 10.0352C26.9083 9.76381 28.6179 8.84158 29.8807 7.41695C28.2706 6.402 26.3722 5.99399 24.4654 6.26543C22.5603 6.53687 20.8507 7.45909 19.5879 8.88373Z" fill="white"/>
<path d="M17.8214 4L15.9824 4.2395L17.2428 13.9178L19.0818 13.6783L17.8214 4Z" fill="white"/>
<path d="M20.2498 36.0284H20.1739C16.9976 36.0284 14.5918 35.9239 12.5433 34.5599C10.4241 33.1505 8.96066 30.5794 7.64729 25.9615C6.55142 22.1074 6.84815 19.0255 8.52905 16.8017C10.532 14.1513 14.4501 12.8076 20.1739 12.8076H20.2498C25.9753 12.8076 29.8918 14.1513 31.8948 16.8017C33.574 19.0255 33.8707 22.1074 32.7765 25.9615C31.4648 30.5777 30.0014 33.1488 27.8805 34.5599C25.832 35.9222 23.4262 36.0284 20.2498 36.0284ZM20.1756 14.6639C15.0638 14.6639 11.643 15.7598 10.011 17.9212C8.70102 19.656 8.50714 22.1917 9.43442 25.4557C11.9111 34.1738 14.6744 34.1738 20.1756 34.1738H20.2515C25.7545 34.1738 28.5161 34.1738 30.9928 25.4557C31.92 22.19 31.7262 19.656 30.4162 17.9212C28.7825 15.7598 25.3633 14.6639 20.2515 14.6639H20.1756Z" fill="white"/>
</svg>
