<svg width="40" height="40" viewBox="0 0 40 40" fill="none" xmlns="http://www.w3.org/2000/svg">
<path d="M19.7042 36.9106C17.7451 36.9106 15.7877 36.7589 13.8438 36.4571L8.48754 35.6242C8.11831 35.5669 7.74234 35.5585 7.37143 35.5989L4.10404 35.9564C3.32681 36.0407 2.58835 35.6512 2.2225 34.96C1.85664 34.2687 1.94769 33.4392 2.45347 32.8441L3.46506 31.6555C4.03828 30.9828 4.38222 30.1617 4.46314 29.2816L4.46652 29.2479L6.34805 14.4536L8.18744 14.6879L6.30759 29.4671C6.18957 30.7248 5.69558 31.8966 4.87621 32.8576L3.86463 34.0462C3.85114 34.0613 3.84608 34.0681 3.85957 34.0917C3.87306 34.1153 3.8798 34.1153 3.90003 34.1136L7.16743 33.7562C7.70188 33.6972 8.24139 33.7107 8.77078 33.7916L14.127 34.6245C17.826 35.1994 21.579 35.1994 25.2797 34.6245L30.636 33.7916C31.1671 33.709 31.7049 33.6972 32.2393 33.7562L35.5067 34.1136C35.527 34.1153 35.5337 34.117 35.5472 34.0917C35.5607 34.0664 35.5556 34.0613 35.5421 34.0462L34.5306 32.8576C33.7112 31.8949 33.2172 30.7231 33.0992 29.4671L31.2193 14.6879L33.0587 14.4536L34.9436 29.2816C35.0229 30.1617 35.3685 30.9828 35.9417 31.6555L36.9533 32.8441C37.4591 33.4392 37.5501 34.2704 37.1843 34.96C36.8184 35.6512 36.08 36.0407 35.3027 35.9564L32.0353 35.5989C31.6644 35.5585 31.2884 35.5669 30.9192 35.6242L25.5629 36.4571C23.619 36.7589 21.6599 36.9106 19.7025 36.9106H19.7042Z" fill="#0E6426"/>
<path d="M33.1458 15.5021H6.26149C5.50281 15.5021 4.88575 14.8851 4.88575 14.1264V11.5486C4.88575 10.7899 5.50281 10.1729 6.26149 10.1729H33.1458C33.9045 10.1729 34.5215 10.7899 34.5215 11.5486V14.1264C34.5215 14.8851 33.9045 15.5021 33.1458 15.5021ZM6.7403 13.6476H32.667V12.0291H6.7403V13.6476Z" fill="#0E6426"/>
<path d="M32.1935 12.0273H7.21094L8.10787 10.606C8.22589 10.4189 11.0684 6.00335 17.1834 4.33256C18.8086 3.88915 20.5974 3.88915 22.2227 4.33256C28.3394 6.00335 31.1802 10.4189 31.2982 10.606L32.1952 12.0273H32.1935ZM10.8526 10.1727H28.5518C27.3042 8.87623 25.0517 7.02673 21.7338 6.11968C20.444 5.76731 18.962 5.76731 17.6723 6.11968C14.3543 7.02673 12.1019 8.87454 10.8543 10.1727H10.8526Z" fill="#0E6426"/>
<path d="M20.6302 29.8736H17.4167C15.2385 29.8736 13.4665 28.1017 13.4665 25.9234V22.71H16.6799C18.8582 22.71 20.6302 24.4819 20.6302 26.6602V29.8736ZM15.3211 24.5645V25.9234C15.3211 27.0783 16.2618 28.0191 17.4167 28.0191H18.7756V26.6602C18.7756 25.5053 17.8348 24.5645 16.6799 24.5645H15.3211Z" fill="#0E6426"/>
<path d="M21.9868 29.8736H18.7734V26.6602C18.7734 24.4819 20.5453 22.71 22.7236 22.71H25.937V25.9234C25.937 28.1017 24.1651 29.8736 21.9868 29.8736ZM20.6279 28.0191H21.9868C23.1417 28.0191 24.0825 27.0783 24.0825 25.9234V24.5645H22.7236C21.5687 24.5645 20.6279 25.5053 20.6279 26.6602V28.0191Z" fill="#0E6426"/>
<path d="M19.7047 26.6617L17.432 24.3891C15.8911 22.8481 15.8911 20.3427 17.432 18.8035L19.7047 16.5308L21.9774 18.8035C23.5184 20.3444 23.5184 22.8498 21.9774 24.3891L19.7047 26.6617ZM19.7047 19.1525L18.7437 20.1134C17.926 20.9311 17.926 22.2597 18.7437 23.0774L19.7047 24.0384L20.6657 23.0774C21.4834 22.2597 21.4834 20.9311 20.6657 20.1134L19.7047 19.1525Z" fill="#0E6426"/>
</svg>
