<svg width="40" height="40" viewBox="0 0 40 40" fill="none" xmlns="http://www.w3.org/2000/svg">
<path d="M15.7332 14.7417L14.4218 16.0531L19.8676 21.4988L21.179 20.1875L15.7332 14.7417Z" fill="#0E6426"/>
<path d="M14.0203 23.877L12.7089 25.1884L18.1118 30.5912L19.4232 29.2799L14.0203 23.877Z" fill="#0E6426"/>
<path d="M7.14633 27.8711L5.83496 29.1824L9.16704 32.5145L10.4784 31.2031L7.14633 27.8711Z" fill="#0E6426"/>
<path d="M4.37402 38.268C3.76538 38.268 3.17361 38.0303 2.71503 37.5802C2.03221 36.9092 1.81978 35.9347 2.15866 35.0394L2.50091 34.1374C5.04672 27.4172 9.87868 20.0748 16.8619 12.3126L16.8956 12.2772C18.3202 10.8526 20.5423 10.4058 22.8386 11.0802L23.309 11.2185L23.4591 11.6855C23.7946 12.7223 24.329 13.653 25.0523 14.4504C25.1248 14.528 25.7098 15.1164 25.8059 15.2024C26.6034 15.924 27.534 16.4601 28.5709 16.7956L29.0379 16.9457L29.1762 17.4161C29.8505 19.714 29.4038 21.9361 27.9791 23.3591L27.9437 23.3928C20.1832 30.376 12.8392 35.208 6.11899 37.7538L5.26252 38.0944C4.97085 38.2107 4.66906 38.2664 4.37233 38.2664L4.37402 38.268ZM18.2241 13.5721C11.4045 21.1555 6.69896 28.2939 4.23577 34.7933L3.89352 35.6953C3.78393 35.9852 3.94241 36.1842 4.01659 36.2567C4.09077 36.3292 4.2914 36.4843 4.5797 36.3713L5.44966 36.0257C11.9625 33.5575 19.1025 28.8503 26.6843 22.0322C27.5222 21.1808 27.8206 19.8422 27.5104 18.3872C26.4179 17.9691 25.4283 17.3621 24.5617 16.5781C24.4268 16.4567 23.7592 15.784 23.6782 15.6964C22.8943 14.8298 22.2873 13.8401 21.8692 12.7476C20.4125 12.4374 19.0756 12.7358 18.2241 13.5737V13.5721Z" fill="#0E6426"/>
<path d="M30.9121 19.0127C29.9393 19.0127 28.958 18.8627 28.0021 18.5542C26.714 18.1377 25.5574 17.4718 24.5627 16.5715C24.4279 16.4501 23.7602 15.7774 23.6793 15.6897C22.779 14.695 22.1113 13.5367 21.6966 12.2487C20.5518 8.70477 21.5937 4.80514 24.3486 2.31161C24.5863 2.0958 24.8949 1.98621 25.2152 2.00139C25.5355 2.01656 25.8323 2.15818 26.0481 2.3959C27.0832 3.53898 27.8065 4.8827 28.1842 6.34443C30.4417 4.5573 33.2741 3.63677 36.1874 3.78682C36.8939 3.82391 37.4384 4.42749 37.4013 5.1339C37.2648 7.79604 36.2684 10.2727 34.5588 12.2605C35.771 12.6735 36.8888 13.3294 37.8532 14.201C38.0909 14.4168 38.2308 14.7118 38.2477 15.0339C38.2629 15.3542 38.1533 15.6627 37.9392 15.9004C36.1183 17.9135 33.5472 19.0111 30.9121 19.0111V19.0127ZM25.1073 4.16785C23.2595 6.17077 22.6104 9.04702 23.4601 11.6805C23.7956 12.7174 24.3301 13.648 25.0533 14.4455C25.1258 14.523 25.7109 15.1114 25.807 15.1974C26.6044 15.919 27.5351 16.4551 28.5719 16.7906C31.2037 17.6404 34.08 16.993 36.0829 15.1435C35.068 14.378 33.881 13.879 32.6149 13.6935L30.6322 13.4019L32.1361 12.0801C34.0463 10.4009 35.2281 8.12649 35.5013 5.62789C32.7464 5.64644 30.1197 6.79458 28.2196 8.82616L26.7562 10.3924L26.6179 8.25293C26.5201 6.74906 26.0009 5.34971 25.1073 4.16785Z" fill="#0E6426"/>
</svg>
