<svg width="30" height="30" viewBox="0 0 30 30" fill="none" xmlns="http://www.w3.org/2000/svg">
<path d="M28.351 11.7505H26.1664C26.1624 5.82203 21.3794 1 15.5004 1C9.62132 1 4.83784 5.82203 4.83431 11.7505H2.64975C1.7435 11.7505 0.980735 12.4985 1.00037 13.412C1.0195 14.2931 1.73141 14.9994 2.60947 15.0004C2.61047 15.0004 2.61098 15.0009 2.61148 15.002L3.90692 20.2256C5.04023 24.7948 9.1108 28 13.7805 28H17.2192C21.8889 28 25.9595 24.7948 27.0928 20.2256L28.3883 15.002C28.3883 15.002 28.3893 15.0004 28.3903 15.0004C29.2683 14.9994 29.9802 14.2936 29.9994 13.412C30.0195 12.4985 29.2572 11.7505 28.351 11.7505ZM10.953 22.5397C10.953 22.9601 10.6147 23.3014 10.1978 23.3014C9.78093 23.3014 9.44259 22.9601 9.44259 22.5397V17.2109C9.44259 16.7904 9.78093 16.4492 10.1978 16.4492C10.6147 16.4492 10.953 16.7904 10.953 17.2109V22.5397ZM16.2556 22.5397C16.2556 22.9601 15.9172 23.3014 15.5004 23.3014C15.0835 23.3014 14.7452 22.9601 14.7452 22.5397V17.2109C14.7452 16.7904 15.0835 16.4492 15.5004 16.4492C15.9172 16.4492 16.2556 16.7904 16.2556 17.2109V22.5397ZM7.20063 11.7505C7.20466 7.13773 10.9263 3.38664 15.5004 3.38664C20.0744 3.38664 23.7961 7.13773 23.8001 11.7505H7.20063ZM21.5581 22.5397C21.5581 22.9601 21.2198 23.3014 20.8029 23.3014C20.3861 23.3014 20.0477 22.9601 20.0477 22.5397V17.2109C20.0477 16.7904 20.3861 16.4492 20.8029 16.4492C21.2198 16.4492 21.5581 16.7904 21.5581 17.2109V22.5397Z" fill="#1C6229"/>
</svg>
