<svg width="45" height="42" viewBox="0 0 45 42" fill="none" xmlns="http://www.w3.org/2000/svg">
<path d="M2.54815 16.6145H5.9243C5.93052 7.45222 13.3224 0 22.4082 0C31.494 0 38.8867 7.45222 38.8921 16.6145H42.2683C43.6688 16.6145 44.8476 17.7704 44.8173 19.1823C44.7877 20.5438 43.6875 21.6355 42.3305 21.637C42.329 21.637 42.3282 21.6378 42.3274 21.6394L40.3254 29.7124C38.5739 36.7738 32.283 41.7273 25.0662 41.7273H19.7518C12.535 41.7273 6.24409 36.7738 4.49261 29.7124L2.49057 21.6394C2.49057 21.6394 2.48901 21.637 2.48746 21.637C1.13046 21.6355 0.0302411 20.5446 0.000673597 19.1823C-0.0304501 17.7704 1.14836 16.6145 2.54893 16.6145H2.54815ZM29.4359 33.2886C29.4359 33.9384 29.9588 34.4657 30.6031 34.4657C31.2473 34.4657 31.7702 33.9384 31.7702 33.2886V25.0532C31.7702 24.4034 31.2473 23.876 30.6031 23.876C29.9588 23.876 29.4359 24.4034 29.4359 25.0532V33.2886ZM21.2411 33.2886C21.2411 33.9384 21.7639 34.4657 22.4082 34.4657C23.0525 34.4657 23.5753 33.9384 23.5753 33.2886V25.0532C23.5753 24.4034 23.0525 23.876 22.4082 23.876C21.7639 23.876 21.2411 24.4034 21.2411 25.0532V33.2886ZM35.2351 16.6145C35.2289 9.48558 29.4772 3.68844 22.4082 3.68844C15.3392 3.68844 9.58756 9.48558 9.58134 16.6145H35.2351ZM13.0462 33.2886C13.0462 33.9384 13.5691 34.4657 14.2133 34.4657C14.8576 34.4657 15.3805 33.9384 15.3805 33.2886V25.0532C15.3805 24.4034 14.8576 23.876 14.2133 23.876C13.5691 23.876 13.0462 24.4034 13.0462 25.0532V33.2886Z" fill="#1C6229"/>
</svg>
