<svg width="40" height="40" viewBox="0 0 40 40" fill="none" xmlns="http://www.w3.org/2000/svg">
<path d="M10.7558 36.592C9.65152 36.592 8.54721 36.1688 7.72447 35.3292C7.10403 34.697 6.70446 33.8877 6.5679 33.0245C5.70468 32.8879 4.89542 32.4883 4.26318 31.8679C2.63117 30.2679 2.57216 27.6109 4.13505 25.9434C5.47202 24.5154 7.62331 24.1951 9.31264 25.1494L13.3066 21.1553L13.863 22.3675C14.5542 23.8764 15.7176 25.0381 17.2248 25.7293L18.437 26.2857L14.443 30.2797C15.3989 31.9691 15.0769 34.1204 13.6489 35.4573C12.8397 36.2143 11.7977 36.592 10.7558 36.592ZM8.44606 31.1446L8.37525 32.2017C8.32973 32.8812 8.57588 33.5471 9.04795 34.031C9.93308 34.933 11.4589 34.9667 12.3794 34.1052C13.2072 33.3296 13.3741 32.0702 12.7756 31.1092C12.3727 30.4601 12.462 29.6357 12.9931 29.1046L15.3079 26.7898C14.3014 26.1356 13.455 25.2893 12.8009 24.2828L10.4861 26.5976C9.95499 27.1287 9.13056 27.218 8.48146 26.8151C7.52046 26.2183 6.26105 26.3852 5.48551 27.2113C4.62229 28.1318 4.65601 29.6593 5.55969 30.5444C6.04187 31.0165 6.70783 31.2626 7.38727 31.2171L8.44437 31.1463L8.44606 31.1446Z" fill="#0E6426"/>
<path d="M20.7211 28.298C19.1886 28.298 17.737 27.9995 16.4557 27.4111C14.537 26.5328 13.0584 25.0542 12.1801 23.1355C11.3759 21.3821 11.1129 19.3118 11.4164 17.1487C11.8783 13.8509 13.5878 10.5785 16.2297 7.93828C18.8716 5.29807 22.1424 3.5885 25.4402 3.12486C28.8357 2.64942 31.8603 3.5413 33.9543 5.63694C36.0499 7.7326 36.9418 10.7572 36.4664 14.151C36.0044 17.4488 34.2948 20.7212 31.6529 23.3615C29.011 26.0034 25.7403 27.7112 22.4425 28.1749C21.8609 28.2558 21.2859 28.2963 20.7211 28.2963V28.298ZM27.1834 4.85803C26.7013 4.85803 26.2039 4.89344 25.6964 4.96425C19.6792 5.80723 14.0953 11.3911 13.2523 17.4083C12.9978 19.2207 13.2102 20.9337 13.866 22.3651C14.5573 23.874 15.7206 25.0356 17.2278 25.7269C18.6575 26.3827 20.3722 26.5951 22.1846 26.3406C28.2018 25.4976 33.7857 19.9137 34.6287 13.8965C35.0215 11.091 34.3167 8.62447 32.6426 6.95031C31.2719 5.57962 29.3684 4.85803 27.1834 4.85803Z" fill="#0E6426"/>
</svg>
