<svg width="40" height="40" viewBox="0 0 40 40" fill="none" xmlns="http://www.w3.org/2000/svg">
<path d="M17.0727 36.5116H6.52535C4.58144 36.5116 3 34.9301 3 32.9862V17.3793C3 15.4994 3.47038 13.6297 4.35889 11.9724L7.79319 5.56738H15.8082L19.2425 11.9724C20.131 13.6297 20.6014 15.4994 20.6014 17.3793V32.9862C20.6014 34.9301 19.02 36.5116 17.0761 36.5116H17.0727ZM8.90087 7.42363L5.9909 12.8508C5.2457 14.2383 4.85288 15.8063 4.85288 17.381V32.9879C4.85288 33.9085 5.60313 34.6587 6.52366 34.6587H17.071C17.9915 34.6587 18.7418 33.9085 18.7418 32.9879V17.381C18.7418 15.8063 18.349 14.2383 17.6038 12.8508L14.6938 7.42363H8.89918H8.90087Z" fill="white"/>
<path d="M7.55519 21.6297C6.45932 21.6297 5.18642 21.5117 3.69434 21.2369L4.03153 19.4127C9.71154 20.463 11.5054 19.0721 13.2385 17.7267C14.7491 16.555 16.3103 15.3444 19.7801 15.8435L19.517 17.6795C16.8246 17.2934 15.7439 18.1313 14.3749 19.1935C12.9402 20.3079 11.2323 21.6314 7.55519 21.6314V21.6297Z" fill="white"/>
<path d="M16.5566 7.42228H7.60246C6.90784 7.42228 6.34473 6.85748 6.34473 6.16455V4.25773C6.34473 3.56311 6.90953 3 7.60246 3H16.5566C17.2512 3 17.8143 3.5648 17.8143 4.25773V6.16455C17.8143 6.85917 17.2495 7.42228 16.5566 7.42228ZM8.1976 5.56772H15.9597V4.85456H8.1976V5.56772Z" fill="white"/>
<path d="M30.7457 36.5108C27.2102 36.5108 24.3339 33.6345 24.3339 30.0991C24.3339 25.3278 27.1343 19.7793 30.7457 19.7793C34.357 19.7793 37.1591 25.2266 37.1591 30.0991C37.1591 33.6345 34.2828 36.5108 30.7457 36.5108ZM30.7457 21.6339C28.5303 21.6339 26.1885 25.9853 26.1885 30.0991C26.1885 32.6129 28.2336 34.6562 30.7457 34.6562C33.2577 34.6562 35.3045 32.6112 35.3045 30.0991C35.3045 25.9061 33.0048 21.6339 30.7457 21.6339Z" fill="white"/>
</svg>
