<svg width="24" height="24" viewBox="0 0 24 24" fill="none" xmlns="http://www.w3.org/2000/svg">
<path d="M16.3259 2.72792L14.4142 4.60693L19.549 9.65385L21.4607 7.77484C22.4482 6.80428 22.4482 5.23197 21.4607 4.26141L19.9045 2.72792C18.917 1.75736 17.3173 1.75736 16.3299 2.72792H16.3259ZM13.5215 5.48431L4.31435 14.5377C3.90356 14.9414 3.60337 15.4422 3.43748 15.9896L2.03922 20.66C1.94048 20.99 2.03133 21.3433 2.27622 21.584C2.52111 21.8247 2.88055 21.914 3.21234 21.8208L7.96403 20.4465C8.52097 20.2834 9.0305 19.9884 9.44129 19.5846L18.6563 10.5312L13.5215 5.48431Z" fill="#1C6229"/>
</svg>
