<svg width="34" height="34" viewBox="0 0 34 34" fill="none" xmlns="http://www.w3.org/2000/svg">
<g clip-path="url(#clip0_1_1280)">
<path d="M4.85934 0C2.18032 0 0.00219727 2.17874 0.00219727 4.85851V29.1511C0.00219727 31.8308 2.18032 34.0096 4.85934 34.0096H12.312V22.9413H8.30488V17.0048H12.312V14.4465C12.312 7.83435 15.3022 4.76741 21.7986 4.76741C23.0281 4.76741 25.1531 5.01034 26.0259 5.25327V10.628C25.5705 10.5824 24.7736 10.5521 23.7794 10.5521C20.5919 10.5521 19.3625 11.7591 19.3625 14.8944V17.0048H25.7071L24.6143 22.9413H19.3549V34.0096H29.1451C31.8241 34.0096 34.0022 31.8308 34.0022 29.1511V4.85851C34.0022 2.17874 31.8241 0 29.1451 0H4.85934Z" fill="#1C6229"/>
</g>
<defs>
<clipPath id="clip0_1_1280">
<rect width="34" height="34" fill="white"/>
</clipPath>
</defs>
</svg>
