<svg width="40" height="40" viewBox="0 0 40 40" fill="none" xmlns="http://www.w3.org/2000/svg">
<path d="M27.3383 35.7439H13.4359C11.1025 35.7439 9.2041 33.8455 9.2041 31.5121V14.0337H11.0587V31.5121C11.0587 32.8221 12.1242 33.8893 13.4359 33.8893H27.3383C28.6483 33.8893 29.7155 32.8238 29.7155 31.5121V14.0337H31.5701V31.5121C31.5701 33.8455 29.6717 35.7439 27.3383 35.7439Z" fill="white"/>
<path d="M27.5987 9.22986H13.1821C11.7406 9.22986 10.5671 8.05643 10.5671 6.61493C10.5671 5.17343 11.7406 4 13.1821 4H27.5987C29.0402 4 30.2137 5.17343 30.2137 6.61493C30.2137 8.05643 29.0402 9.22986 27.5987 9.22986ZM13.1804 5.85456C12.7606 5.85456 12.42 6.19513 12.42 6.61493C12.42 7.03473 12.7606 7.3753 13.1804 7.3753H27.597C28.0168 7.3753 28.3574 7.03473 28.3574 6.61493C28.3574 6.19513 28.0168 5.85456 27.597 5.85456H13.1804Z" fill="white"/>
<path d="M28.53 15.9752C27.1576 15.9752 26.4124 15.3329 25.8695 14.8642C25.4076 14.4663 25.1024 14.2033 24.4196 14.2033C23.7368 14.2033 23.4316 14.4663 22.9713 14.8642C22.4268 15.3329 21.6833 15.9769 20.3109 15.9769C18.9385 15.9769 18.1933 15.3346 17.6504 14.8642C17.1885 14.4663 16.8833 14.2033 16.2022 14.2033C15.5211 14.2033 15.2142 14.4663 14.754 14.8642C14.2094 15.3329 13.4659 15.9769 12.0935 15.9769C10.7211 15.9769 9.97595 15.3346 9.43307 14.8642C9.18692 14.6518 8.9728 14.4663 8.72834 14.3517L8 14.0077L9.23412 10.0255C9.72643 8.43733 11.173 7.37012 12.8353 7.37012H27.9551C29.6107 7.37012 31.0572 8.43227 31.5529 10.012L32.8022 13.9959L31.9929 14.3095C31.7046 14.4208 31.4686 14.6265 31.1938 14.8625C30.6492 15.3312 29.9057 15.9752 28.5333 15.9752H28.53ZM24.4213 12.3471C25.7936 12.3471 26.5388 12.9894 27.0817 13.4598C27.5437 13.8577 27.8488 14.1207 28.53 14.1207C29.2111 14.1207 29.5179 13.8577 29.9799 13.4598C30.1519 13.3114 30.3339 13.153 30.5447 13.0046L29.7809 10.5667C29.5297 9.76418 28.7947 9.22467 27.9534 9.22467H12.8337C11.989 9.22467 11.2539 9.76755 11.0044 10.5734L10.2187 13.1074C10.3721 13.2255 10.5121 13.3452 10.6436 13.4598C11.1055 13.8577 11.409 14.1207 12.0918 14.1207C12.7746 14.1207 13.0798 13.8577 13.5401 13.4598C14.0846 12.9911 14.8281 12.3471 16.2005 12.3471C17.5729 12.3471 18.3181 12.9894 18.861 13.4598C19.3229 13.8577 19.6264 14.1207 20.3092 14.1207C20.992 14.1207 21.2972 13.8577 21.7575 13.4598C22.302 12.9911 23.0455 12.3471 24.4179 12.3471H24.4213Z" fill="white"/>
<path d="M20.3902 26.0056L16.3389 23.6672V18.9903L20.3902 16.6519L24.4416 18.9903V23.6672L20.3902 26.0056ZM18.1934 22.5949L20.3902 23.8628L22.587 22.5949V20.0592L20.3902 18.7914L18.1934 20.0592V22.5949Z" fill="white"/>
<path d="M17.2623 31.4139L13.2109 29.0754V24.3986L17.2623 22.0601L21.3137 24.3986V29.0754L17.2623 31.4139ZM15.0672 28.0032L17.264 29.271L19.4608 28.0032V25.4675L17.264 24.1996L15.0672 25.4675V28.0032Z" fill="white"/>
<path d="M23.5113 31.4139L19.46 29.0754V24.3986L23.5113 22.0601L27.5627 24.3986V29.0754L23.5113 31.4139ZM21.3145 28.0032L23.5113 29.271L25.7081 28.0032V25.4675L23.5113 24.1996L21.3145 25.4675V28.0032Z" fill="white"/>
</svg>
