<svg width="88" height="88" viewBox="0 0 88 88" fill="none" xmlns="http://www.w3.org/2000/svg">
<mask id="mask0_2007_72" style="mask-type:luminance" maskUnits="userSpaceOnUse" x="3" y="6" width="82" height="76">
<path d="M85 6H3V82H85V6Z" fill="white"/>
</mask>
<g mask="url(#mask0_2007_72)">
<path d="M69.4815 47.3898C69.0335 47.3898 68.5856 47.3688 68.1376 47.3233L68.2636 46.0352C71.5709 46.3572 74.9937 45.3561 77.8985 43.2175C83.6276 39.0068 85.43 31.6948 81.9197 26.917C81.6853 26.5985 81.4123 26.2835 81.0623 25.93L80.7228 25.587L80.9573 25.1634C83.1482 21.1977 83.0712 16.7769 80.7578 13.6268C77.293 8.91551 70.073 8.37298 64.3193 12.3947L63.7314 12.8077L63.3849 12.1777C63.1819 11.8102 62.9754 11.4847 62.7549 11.1871C59.2446 6.41286 51.7271 5.95434 46.0014 10.1651C44.0031 11.6352 42.4072 13.5498 41.3922 15.7024L41.2487 16.0069L40.9162 16.0629C38.4314 16.4794 36.006 17.5155 33.9097 19.0591C30.8019 21.3447 28.6285 24.5054 27.7955 27.9601C26.9696 31.3728 27.5541 34.6665 29.4369 37.2287C31.9883 40.7009 36.615 42.262 41.5147 41.3029L41.7632 42.5735C36.37 43.6305 31.2463 41.8769 28.394 37.9952C26.2801 35.1215 25.6222 31.4498 26.5391 27.6591C27.4456 23.9104 29.7904 20.4837 33.1467 18.0195C35.3131 16.4269 37.8049 15.3349 40.3773 14.8519C41.4902 12.6292 43.1666 10.6551 45.242 9.12552C51.5451 4.49125 59.8711 5.07228 63.8049 10.4206C63.9273 10.5886 64.0498 10.7636 64.1653 10.9491C70.402 6.9554 78.0455 7.73944 81.8078 12.8637C84.3416 16.3114 84.5271 21.0647 82.3222 25.37C82.5672 25.636 82.7807 25.895 82.9697 26.154C86.9034 31.5023 84.9751 39.6263 78.6719 44.2606C75.9001 46.3012 72.6838 47.3863 69.4885 47.3863L69.4815 47.3898Z" fill="#1C6229"/>
<path d="M56.3404 65.2759C55.9134 65.2759 55.5704 64.9294 55.5704 64.5059V62.7803C48.9138 62.9693 43.6396 65.6259 43.6396 72.3848C43.6396 79.1437 49.3268 81.9999 56.3404 81.9999C63.3539 81.9999 69.0411 79.3992 69.0411 72.3848C69.0411 65.3704 63.7669 62.9693 57.1103 62.7803V64.5059C57.1103 64.9329 56.7638 65.2759 56.3404 65.2759Z" fill="#A3D657"/>
<path d="M72.1418 52.6714C70.0734 58.9717 63.4378 62.4929 57.1102 60.7743V64.5056C57.1102 64.9326 56.7672 65.2791 56.3403 65.2791C55.9133 65.2791 55.5703 64.9326 55.5703 64.5056V52.5664H57.1102V59.0487C59.1996 54.7225 63.5883 52.0483 68.271 52.0483C69.552 52.0483 70.8574 52.2478 72.1418 52.6714Z" fill="#1C6229"/>
<path d="M79.3163 49.1051C78.9664 49.7946 78.1929 50.1586 77.4405 49.9836C73.8252 49.1471 62.8393 46.9489 49.3932 47.2464C45.5294 47.3304 41.6901 47.929 38.4143 48.58C42.4671 51.0932 47.1463 53.6343 53.4144 54.8629L52.893 56.627C43.202 56.0285 37.1299 53.0708 32.0202 50.0011C31.1733 50.2041 30.3298 50.4071 29.4969 50.6101C22.9908 52.1852 16.3482 53.7918 9.96457 53.7918C7.60222 53.7918 5.27136 53.5678 3 53.0428V43.2352C9.11763 45.9584 17.3351 43.9702 26.8405 41.6671C28.9824 41.1491 31.1558 40.6241 33.3536 40.141C37.5884 39.21 43.209 38.1214 49.1447 37.9919C65.1247 37.6349 75.4946 44.5373 78.8229 46.9874C79.4878 47.4775 79.6873 48.37 79.3163 49.1051Z" fill="#1C6229"/>
</g>
</svg>
