<svg width="24" height="23" viewBox="0 0 24 23" fill="none" xmlns="http://www.w3.org/2000/svg">
<path d="M24 2.83337H0V18.0875H24V2.83337Z" fill="#1C6229"/>
<path d="M13.0333 22.4546H10.3534L8.86951 0.712158H14.0869L13.0333 22.4546Z" fill="#1C6229"/>
<path d="M14.1207 5.55115C10.2798 5.55115 7.16577 8.71421 7.16577 12.6155V14.1985C8.52499 10.79 10.7226 9.37029 13.5229 8.05813C13.7895 7.93298 14.0148 8.29671 13.7867 8.48541C13.057 9.08772 12.1406 9.88753 11.1356 10.8702C9.60793 12.3632 8.92062 14.2728 8.63376 15.3708H9.87554C13.7164 15.3708 16.8305 12.2078 16.8305 8.30648V5.5531H14.1197L14.1207 5.55115Z" fill="white"/>
</svg>
