<svg width="24" height="24" viewBox="0 0 24 24" fill="none" xmlns="http://www.w3.org/2000/svg">
<path d="M3.0625 4C1.92383 4 1 4.90916 1 6.02976C1 6.66829 1.30508 7.26876 1.825 7.65357L11.175 14.5548C11.6648 14.9142 12.3352 14.9142 12.825 14.5548L22.175 7.65357C22.6949 7.26876 23 6.66829 23 6.02976C23 4.90916 22.0762 4 20.9375 4H3.0625ZM1 8.73611V17.5317C1 19.0245 2.2332 20.2381 3.75 20.2381H20.25C21.7668 20.2381 23 19.0245 23 17.5317V8.73611L13.65 15.6373C12.6703 16.3604 11.3297 16.3604 10.35 15.6373L1 8.73611Z" fill="#197230"/>
</svg>
