<svg width="88" height="88" viewBox="0 0 88 88" fill="none" xmlns="http://www.w3.org/2000/svg">
<mask id="mask0_2007_81" style="mask-type:luminance" maskUnits="userSpaceOnUse" x="11" y="5" width="66" height="77">
<path d="M77 5H11V82H77V5Z" fill="white"/>
</mask>
<g mask="url(#mask0_2007_81)">
<path d="M72.6786 28.8614C72.6786 24.5029 68.3604 24.5977 61.6251 22.0655C61.1197 14.7743 53.0628 5 43.1682 5C33.2737 5 25.2132 14.7743 24.7079 22.0655C17.9725 24.5977 13.6543 24.5029 13.6543 28.8614C13.6543 33.22 18.0432 35.8646 24.874 38.3934C26.1744 28.4294 33.8568 26.9087 43.1682 26.9087C52.4797 26.9087 60.1621 28.4259 61.4625 38.3934C68.2933 35.8646 72.6822 33.2516 72.6822 28.8614H72.6786Z" fill="#A3D657"/>
<path d="M77 81.9999H75.6925C75.6925 74.224 69.3282 67.8987 61.5045 67.8987H52.3202V68.7451C52.3202 71.1895 51.3484 73.4724 49.5816 75.1758C47.8182 76.8792 45.4895 77.7748 43.0264 77.701C38.2064 77.557 34.2875 73.3811 34.2875 68.3939V67.8952H26.492C18.6682 67.8952 12.304 74.2205 12.304 81.9964H11C11 73.5076 17.9509 66.5992 26.492 66.5992H35.595V68.3939C35.595 72.6857 38.9485 76.2786 43.0689 76.4016C45.175 76.4648 47.168 75.6956 48.6769 74.2416C50.1858 72.7841 51.0198 70.8313 51.0198 68.7416V66.5957H61.5115C70.0526 66.5957 77.0035 73.504 77.0035 81.9929L77 81.9999Z" fill="#1C6229"/>
<path d="M34.6581 38.1474C35.2728 38.1474 35.7712 37.443 35.7712 36.574C35.7712 35.705 35.2728 35.0005 34.6581 35.0005C34.0433 35.0005 33.5449 35.705 33.5449 36.574C33.5449 37.443 34.0433 38.1474 34.6581 38.1474Z" fill="#1C6229"/>
<path d="M48.9452 38.1474C49.5599 38.1474 50.0583 37.443 50.0583 36.574C50.0583 35.705 49.5599 35.0005 48.9452 35.0005C48.3304 35.0005 47.832 35.705 47.832 36.574C47.832 37.443 48.3304 38.1474 48.9452 38.1474Z" fill="#1C6229"/>
<path d="M43.1639 52.9055C41.0613 52.9055 39.3545 51.4374 39.3545 49.6357H40.662C40.662 50.7245 41.7857 51.606 43.1674 51.606C44.5491 51.606 45.6729 50.7209 45.6729 49.6357H46.9803C46.9803 51.4374 45.27 52.9055 43.171 52.9055H43.1639Z" fill="#1C6229"/>
<path d="M42.5815 46.2501C41.7652 46.2501 41.0125 45.7619 40.5319 44.9085C39.5884 43.2332 40.6202 37.5716 40.8358 36.4512L42.1185 36.6971C41.6167 39.2855 41.1503 43.3456 41.6733 44.2728C41.9383 44.7434 42.3023 44.9857 42.6733 44.9436C42.9666 44.9085 43.2105 44.7012 43.2882 44.4168L44.5462 44.7645C44.3236 45.5582 43.6486 46.1342 42.8288 46.2325C42.7475 46.2431 42.6627 46.2466 42.5815 46.2466V46.2501Z" fill="#1C6229"/>
<path d="M30.715 67.2524H26.4922V81.9999H30.715V67.2524Z" fill="#1C6229"/>
<path d="M61.674 67.2524H57.4512V81.9999H61.674V67.2524Z" fill="#1C6229"/>
<path d="M43.3087 77.7082C43.2168 77.7082 43.1214 77.7082 43.0296 77.7047C38.2095 77.5607 34.2906 73.3847 34.2906 68.3975V62.5463C34.2906 61.8158 33.9761 61.1098 33.4283 60.6006C28.8309 56.3509 25.8944 52.9266 24.6717 48.2589H24.6611C22.714 48.2589 21.1309 46.6855 21.1309 44.7503C21.1309 43.0294 22.3853 41.5929 24.0356 41.2979C24.0709 40.2232 24.1416 38.9729 24.2264 38.3056C25.6081 27.7165 34.1457 26.2554 43.1674 26.2554C52.1891 26.2554 60.7266 27.7165 62.1083 38.3056C62.1967 38.9764 62.2638 40.2267 62.2991 41.2979C63.9494 41.5929 65.2039 43.0294 65.2039 44.7503C65.2039 46.6855 63.6208 48.2589 61.6737 48.2589C61.6065 48.2589 61.5359 48.2589 61.4687 48.2519C59.928 53.1338 56.4861 56.9515 53.076 60.4496C52.5884 60.9483 52.3233 61.6015 52.3233 62.2899V68.7452C52.3233 71.1897 51.3516 73.4725 49.5847 75.1759C47.8885 76.8126 45.6657 77.7047 43.3087 77.7047V77.7082ZM25.6682 46.8155L25.806 47.4195C26.8626 52.045 29.725 55.4096 34.3153 59.6523C35.1281 60.4039 35.5945 61.4611 35.5945 62.5463V68.3975C35.5945 72.6893 38.9481 76.2823 43.0684 76.4052C45.1781 76.4684 47.1676 75.6992 48.6765 74.2452C50.1854 72.7877 51.0194 70.8349 51.0194 68.7452V62.2899C51.0194 61.2644 51.4187 60.288 52.1396 59.5469C55.5567 56.0383 59.0092 52.2066 60.3768 47.3493L60.5464 46.7487L61.1577 46.8962C61.3521 46.9419 61.5182 46.963 61.6737 46.963C62.8999 46.963 63.8964 45.9725 63.8964 44.7538C63.8964 43.5351 62.9246 42.5693 61.7196 42.5447H61.6631H61.0235L61.0093 41.9125C60.981 40.7465 60.9033 39.1941 60.8114 38.4777C59.6276 29.3847 53.182 27.5584 43.1674 27.5584C33.1527 27.5584 26.7071 29.3847 25.5233 38.4777C25.4314 39.1941 25.3537 40.7465 25.3254 41.916L25.3113 42.5482H24.6187C23.4137 42.5728 22.4419 43.5527 22.4419 44.7573C22.4419 45.962 23.4384 46.9665 24.6646 46.9665C24.7777 46.9665 24.9014 46.9524 25.0604 46.9243L25.6753 46.8155H25.6682Z" fill="#1C6229"/>
</g>
</svg>
