<svg width="40" height="40" viewBox="0 0 40 40" fill="none" xmlns="http://www.w3.org/2000/svg">
<path d="M34.6534 20.0531L33.5053 18.5964C35.1862 17.2729 35.4762 14.83 34.1527 13.1491C33.2676 12.0246 31.8396 11.48 30.4284 11.7295L30.1064 9.90363C32.1919 9.53609 34.3011 10.3403 35.6111 12.0027C37.5668 14.486 37.1385 18.0991 34.6551 20.0548L34.6534 20.0531Z" fill="#0E6426"/>
<path d="M14.9875 24.0451L14.271 23.9018C13.1515 23.6776 12.0236 23.6405 10.921 23.7922L10.481 23.8529L10.1573 23.5478C8.4393 21.9259 7.43447 19.7392 7.32657 17.3873C7.3114 17.0703 7.42267 16.7651 7.6351 16.5308C7.84922 16.2964 8.14258 16.1582 8.45954 16.1447C11.7826 15.993 14.9134 17.6705 16.6313 20.5232L16.9972 21.1318L16.5049 21.6443C15.9823 22.1889 15.5742 22.7722 15.2927 23.3825L14.9858 24.0468L14.9875 24.0451ZM12.263 21.845C12.8228 21.845 13.3842 21.8854 13.9439 21.9647C14.153 21.6055 14.3958 21.2582 14.6689 20.921C13.3876 19.1811 11.3965 18.1089 9.24182 17.9976C9.45257 19.461 10.105 20.8165 11.1284 21.8989C11.5044 21.8618 11.882 21.845 12.2613 21.845H12.263Z" fill="#0E6426"/>
<path d="M8.93336 31.0275C6.73992 31.0275 4.54985 30.4138 2.59919 29.1864C2.00068 28.8105 1.82028 28.0164 2.19625 27.4179C4.0761 24.432 7.1631 22.4409 10.6682 21.9587C11.9782 21.7783 13.3134 21.8222 14.6369 22.0869L15.7901 22.3178L15.2961 23.3851C15.1832 23.6278 15.0989 23.8453 15.0365 24.0476C14.9623 24.2938 14.9067 24.5585 14.8713 24.8384C14.8426 25.0643 14.8291 25.2497 14.8291 25.42C14.8291 26.2765 15.0736 27.1262 15.5575 27.9473L16.016 28.7279L15.2472 29.205C13.2966 30.4189 11.1116 31.0242 8.93167 31.0242L8.93336 31.0275ZM4.09464 27.9169C7.03833 29.5422 10.5418 29.5877 13.5309 28.0501C13.1617 27.197 12.9746 26.3169 12.9746 25.4217C12.9746 25.1705 12.9931 24.9109 13.0302 24.6074C13.0673 24.3123 13.1229 24.024 13.1937 23.7492C12.4317 23.6784 11.6697 23.6936 10.9194 23.7981C8.15444 24.1791 5.698 25.6695 4.09296 27.9186L4.09464 27.9169Z" fill="#0E6426"/>
<path d="M25.9871 34.4891C20.6847 34.4891 15.964 32.2889 13.9611 28.8867C13.3087 27.7773 12.9765 26.6106 12.9765 25.4186C12.9765 25.1674 12.9951 24.9078 13.0322 24.6043C13.081 24.2216 13.1586 23.8524 13.2631 23.5084C13.3491 23.2235 13.4638 22.9286 13.6138 22.6066C13.9814 21.8108 14.5057 21.0554 15.1716 20.3624C16.3383 19.1469 17.9248 18.1388 19.7575 17.4458C20.6763 17.0985 21.2377 16.161 21.1231 15.1646L19.9631 5H32.011L30.8511 15.1646C30.7381 16.161 31.2996 17.0985 32.2167 17.4458C36.3996 19.0273 38.996 22.0821 38.996 25.4203C38.996 27.9139 37.5933 30.2322 35.0474 31.9485C32.6146 33.5889 29.3961 34.4925 25.9854 34.4925L25.9871 34.4891ZM22.0419 6.85287L22.9658 14.9522C23.1766 16.7933 22.1262 18.5298 20.4133 19.1772C18.8369 19.774 17.4865 20.6272 16.5103 21.6439C15.9876 22.1884 15.5796 22.7717 15.2981 23.382C15.1851 23.6248 15.1008 23.8423 15.0401 24.0446C14.966 24.2907 14.9103 24.5555 14.8749 24.8354C14.8462 25.0613 14.8328 25.2467 14.8328 25.417C14.8328 26.2734 15.0772 27.1232 15.5611 27.9443C17.2117 30.7498 21.4013 32.6329 25.9888 32.6329C32.1392 32.6329 37.1448 29.3958 37.1448 25.417C37.1448 22.8695 35.007 20.4788 31.5643 19.1772C29.8513 18.5298 28.801 16.7916 29.0117 14.9522L29.9356 6.85287H22.0436H22.0419Z" fill="#0E6426"/>
<path d="M31.0838 28.334C27.9361 28.334 26.1389 27.4927 24.1697 26.5721C21.9779 25.5471 19.4945 24.3854 14.3203 24.1022L14.4214 22.251C19.9531 22.5545 22.6101 23.797 24.9536 24.8929C27.9546 26.2956 30.1228 27.3089 37.5899 25.5791L38.008 27.3864C35.0812 28.0642 32.8642 28.334 31.0821 28.334H31.0838Z" fill="#0E6426"/>
</svg>
