<svg width="24" height="24" viewBox="0 0 24 24" fill="none" xmlns="http://www.w3.org/2000/svg">
<mask id="mask0_4020_25" style="mask-type:luminance" maskUnits="userSpaceOnUse" x="4" y="4" width="17" height="17">
<path d="M21 4H4V21H21V4Z" fill="white"/>
</mask>
<g mask="url(#mask0_4020_25)">
<path d="M9.47519 4.81657C9.21953 4.19899 8.54551 3.87028 7.90137 4.04626L4.97949 4.84313C4.40176 5.00251 4 5.52712 4 6.12477C4 14.3392 10.6606 20.9998 18.875 20.9998C19.4727 20.9998 19.9973 20.598 20.1566 20.0203L20.9535 17.0984C21.1295 16.4543 20.8008 15.7803 20.1832 15.5246L16.9957 14.1965C16.4545 13.9707 15.827 14.1267 15.4584 14.5816L14.117 16.2185C11.7795 15.1129 9.88691 13.2203 8.78125 10.8828L10.4182 9.5447C10.873 9.17282 11.0291 8.5486 10.8033 8.00739L9.47519 4.81989V4.81657Z" fill="#1C6229"/>
</g>
</svg>
