<svg width="88" height="88" viewBox="0 0 88 88" fill="none" xmlns="http://www.w3.org/2000/svg">
<mask id="mask0_2007_95" style="mask-type:luminance" maskUnits="userSpaceOnUse" x="11" y="0" width="66" height="88">
<path d="M77 0H11V88H77V0Z" fill="white"/>
</mask>
<g mask="url(#mask0_2007_95)">
<path d="M36.9475 67.9654V79.2319C38.8363 78.2881 40.4294 76.7114 41.5494 74.6202C43.1351 71.6629 43.5934 68.0654 42.843 64.4863L45.338 63.9644C46.2103 68.1283 45.6633 72.344 43.7967 75.8305C42.2036 78.8026 39.8084 80.9382 36.9475 82.0078V88.0038H30.4385V67.9654H36.9475Z" fill="#A3D657"/>
<path d="M11 46.935C11 39.5584 16.0269 33.5773 22.2255 33.5773C22.6431 33.5773 23.0571 33.6106 23.4637 33.6624C23.6374 26.4673 28.583 20.6934 34.6744 20.6934C38.9214 20.6934 42.6176 23.5026 44.5249 27.6443C44.9758 27.5776 45.4341 27.5332 45.8999 27.5332C52.0985 27.5332 57.1253 33.5144 57.1253 40.8909C57.1253 44.7327 55.754 48.186 53.5733 50.6214C54.7339 52.8717 55.4177 55.5144 55.4177 58.3495C55.4177 66.5292 49.8438 73.158 42.9724 73.158C39.6015 73.158 36.5484 71.5554 34.3085 68.9683C32.1794 73.4912 28.1173 76.5521 23.4489 76.5521C16.5739 76.5521 11.0037 69.9195 11.0037 61.7435C11.0037 58.9565 11.6616 56.3619 12.7853 54.1375C11.6616 52.0574 11.0037 49.5887 11.0037 46.935H11Z" fill="#1C6229"/>
<path d="M64.2813 78.9098C57.2658 78.9098 51.5588 73.1951 51.5588 66.1702V12.7396C51.5588 5.71467 57.2658 0 64.2813 0C71.2967 0 77.0037 5.71467 77.0037 12.7396V66.174C77.0037 73.1989 71.2967 78.9135 64.2813 78.9135V78.9098ZM64.2813 1.36945C58.0199 1.36945 52.9264 6.46972 52.9264 12.7396V66.174C52.9264 72.4438 58.0199 77.5441 64.2813 77.5441C70.5427 77.5441 75.6361 72.4438 75.6361 66.174V12.7396C75.6361 6.46972 70.5427 1.36945 64.2813 1.36945Z" fill="#1C6229"/>
<path d="M64.9651 15.1826H63.5975V87.0231H64.9651V15.1826Z" fill="#1C6229"/>
<path d="M70.6944 51.4761L63.7944 58.3854L64.7615 59.3537L71.6615 52.4444L70.6944 51.4761Z" fill="#1C6229"/>
<path d="M70.6958 28.5967L63.7958 35.506L64.7628 36.4743L71.6628 29.565L70.6958 28.5967Z" fill="#1C6229"/>
</g>
</svg>
