<svg width="54" height="54" viewBox="0 0 54 54" fill="none" xmlns="http://www.w3.org/2000/svg">
<path d="M27.001 0C12.0883 0 0.000976562 12.0874 0.000976562 27C0.000976562 34.9575 3.44186 42.1092 8.91746 47.0513C9.02978 47.1528 9.14426 47.2522 9.25874 47.3494C9.33218 47.4163 9.40346 47.479 9.4769 47.5416C9.51794 47.5783 9.56114 47.6129 9.60434 47.6496C9.6173 47.6604 9.63242 47.6734 9.64754 47.6842C9.65402 47.6712 9.6605 47.6583 9.66698 47.6453C9.7901 47.2522 10.1184 46.9303 10.6541 46.9303C11.1531 46.9303 11.4727 47.209 11.6131 47.5654C11.6261 47.5935 11.6412 47.6172 11.652 47.6453C11.6931 47.7209 11.7168 47.803 11.7319 47.8851C11.7535 47.9088 11.7751 47.9369 11.8011 47.9585C11.9285 48.0687 12.0063 48.2177 12.0559 48.3797C12.4404 48.438 12.8163 48.5287 13.1359 48.6346C17.5791 50.0926 21.3504 53.1749 26.1111 53.635C27.7095 53.7883 29.3252 53.7538 30.8782 53.3131C32.4032 52.879 33.7899 52.0495 35.3019 51.5506C36.8528 51.0387 38.4944 50.6823 39.9718 49.9716C40.9416 49.5051 41.7192 48.7426 42.5552 48.0687C42.4601 47.4725 42.8036 46.7921 43.5833 46.7921C44.119 46.7921 44.4452 47.1118 44.5704 47.5027C44.5769 47.4963 44.5856 47.4919 44.592 47.4855C44.6374 47.4466 44.6806 47.4077 44.7238 47.371C44.767 47.3321 44.8102 47.2932 44.8534 47.2565C44.8642 47.2457 44.8772 47.2371 44.888 47.2263C44.9916 47.1355 45.091 47.0448 45.1925 46.9519C45.2012 46.9455 45.2098 46.939 45.2184 46.9303C50.6184 41.9947 54.0053 34.8927 54.0053 26.9979C54.001 12.0874 41.9115 0 27.001 0Z" fill="#1C6229"/>
<path d="M27.0013 35.1886C34.289 35.1886 40.1968 29.0235 40.1968 21.4186C40.1968 13.8136 34.289 7.64855 27.0013 7.64855C19.7137 7.64855 13.8059 13.8136 13.8059 21.4186C13.8059 29.0235 19.7137 35.1886 27.0013 35.1886Z" fill="#A3D657"/>
<path d="M40.1946 21.4855H13.8059V36.4759H40.1946V21.4855Z" fill="#A3D657"/>
<path d="M26.3479 45.0749L23.1987 43.4744V38.2558C23.1987 37.2449 22.6932 36.2729 21.8465 35.6552C19.6606 34.0589 18.1572 31.482 17.4833 28.1837C17.371 28.2053 17.2586 28.2161 17.1442 28.2161C17.0513 28.2161 16.9606 28.2096 16.8785 28.1945C15.9734 28.0671 15.2801 27.229 15.2801 26.2484C15.2801 25.4319 15.7661 24.6932 16.4918 24.4102C16.6862 24.3281 16.9109 24.2828 17.1442 24.2828C17.1528 24.2828 17.1614 24.2828 17.1722 24.2828C17.1787 24.1316 17.1874 23.9782 17.1982 23.827C17.7382 16.3123 21.2266 12.1759 27.0175 12.1759C30.0696 12.1759 32.6335 13.5713 34.4285 16.213C35.8498 18.3039 36.7159 21.1356 36.8347 24.0516C36.8434 24.0516 36.852 24.0516 36.8607 24.0516C37.0918 24.0516 37.3121 24.0948 37.5173 24.1791C38.2366 24.4556 38.7247 25.1964 38.7247 26.0172C38.7247 26.9504 38.0962 27.7625 37.2322 27.9483C37.0983 27.9742 36.9773 27.985 36.8607 27.985C36.744 27.985 36.6339 27.9742 36.5215 27.9526C35.8563 31.2207 34.4307 33.6636 32.2771 35.2232C31.4175 35.8452 30.9034 36.8237 30.9034 37.8411V43.0402L27.6677 44.8416L26.754 45.2693L26.3501 45.0792L26.3479 45.0749Z" fill="white"/>
<path d="M27.013 12.6058C33.3548 12.6058 36.3486 18.8806 36.4134 24.555C36.5538 24.5053 36.7028 24.4794 36.8583 24.4794C37.0311 24.4794 37.1974 24.5118 37.3486 24.5744C37.8973 24.7861 38.2904 25.352 38.2904 26.013C38.2904 26.7582 37.7958 27.3803 37.1391 27.5207C37.0484 27.5379 36.9534 27.5487 36.8583 27.5487C36.6164 27.5487 36.3874 27.4839 36.1887 27.3695C35.5969 30.7499 34.221 33.2749 32.0221 34.869C31.063 35.5623 30.469 36.6531 30.469 37.8368V42.7811L27.4688 44.4507L26.7517 44.7855L26.5313 44.6819L23.6283 43.2066V38.2537C23.6283 37.0808 23.0473 35.9965 22.099 35.3031C19.8569 33.6659 18.4054 30.9983 17.8093 27.6027C17.6105 27.7172 17.3816 27.782 17.1397 27.782C17.0749 27.782 17.0101 27.7777 16.9474 27.7669C16.2476 27.6675 15.7076 27.026 15.7076 26.2463C15.7076 25.5853 16.0985 25.0237 16.645 24.8099C16.7984 24.7451 16.9647 24.7127 17.1397 24.7127C17.2952 24.7127 17.4442 24.7386 17.5846 24.7883C17.5889 24.4751 17.6019 24.164 17.6235 23.8551C18.0749 17.5825 20.6691 12.6058 27.0109 12.6058M27.013 11.7418C20.9629 11.7418 17.3233 16.023 16.7638 23.7947C16.7638 23.8249 16.7595 23.853 16.7573 23.8832C16.6061 23.9091 16.4614 23.9523 16.321 24.0107C15.4376 24.3606 14.8457 25.2591 14.8457 26.2484C14.8457 27.4386 15.6925 28.4559 16.8157 28.6223C16.9172 28.6395 17.0273 28.6482 17.1397 28.6482C17.8719 31.8731 19.4012 34.4046 21.5914 36.003C22.3258 36.5408 22.7665 37.3811 22.7665 38.2559V43.7401L23.2395 43.9799L26.1425 45.4551L26.1641 45.4681L26.7517 45.7446L27.1189 45.5739L27.836 45.2391L27.8641 45.2262L27.89 45.2111L31.333 43.2951V37.8433C31.333 36.9642 31.7802 36.1175 32.5275 35.5753C34.6875 34.0115 36.1412 31.6074 36.8605 28.4192C37.003 28.4192 37.1499 28.4041 37.3011 28.376H37.3098L37.3184 28.3717C38.3811 28.1449 39.1522 27.1556 39.1522 26.0195C39.1522 25.0259 38.5561 24.1273 37.6683 23.7795C37.5322 23.7234 37.3897 23.6823 37.2428 23.6564C37.0635 20.7966 36.1844 18.0382 34.7804 15.9733C32.9012 13.2085 30.2142 11.7483 27.013 11.7483V11.7418Z" fill="#1C6229"/>
<path d="M28.1225 32.2768C28.1225 32.2768 27.2304 30.0174 28.453 29.4278C29.6734 28.8359 30.4704 31.1514 30.4704 31.1514" fill="#A3D657"/>
<path d="M23.56 22.8096C23.56 23.3215 23.2684 23.7362 22.9099 23.7362C22.5513 23.7362 22.2597 23.3215 22.2597 22.8096C22.2597 22.2976 22.5513 21.8851 22.9099 21.8851C23.2684 21.8851 23.56 22.2998 23.56 22.8096Z" fill="#1C6229"/>
<path d="M31.3312 22.8096C31.3312 23.3215 31.0396 23.7362 30.681 23.7362C30.3225 23.7362 30.0309 23.3215 30.0309 22.8096C30.0309 22.2976 30.3225 21.8851 30.681 21.8851C31.0396 21.8851 31.3312 22.2998 31.3312 22.8096Z" fill="#1C6229"/>
<path d="M44.8831 47.2284C44.8831 47.2284 44.8593 47.2478 44.8485 47.2586C44.8053 47.2953 44.7621 47.3342 44.7189 47.3731C44.6736 47.4141 44.6282 47.4552 44.5807 47.4984C44.5829 47.494 44.585 47.4919 44.5872 47.4876C42.9067 48.9326 41.0448 50.1746 39.0381 51.1725C38.6558 51.3626 38.2692 51.5462 37.8761 51.7168C37.038 52.0884 36.1761 52.4167 35.2949 52.7018C32.6813 53.5442 29.8927 54 27.0005 54C24.1082 54 21.4946 53.5723 18.9523 52.7796C18.071 52.5052 17.2113 52.1877 16.3711 51.827C13.9044 50.7686 11.6261 49.356 9.60434 47.6496C9.56114 47.6129 9.51794 47.5783 9.4769 47.5416C9.40346 47.479 9.33218 47.4163 9.25874 47.3494C10.3279 42.5153 13.2088 40.3941 16.3711 39.636C16.8852 39.5128 17.4057 39.4243 17.9284 39.3681C19.758 39.1651 21.6004 39.3336 23.1708 39.623C23.1708 40.1522 23.322 40.7743 23.6287 41.3661C24.2032 42.4764 25.3329 43.4808 27.0653 43.552C28.7652 43.4808 29.8862 42.5088 30.4694 41.4201C30.7956 40.8132 30.9554 40.1673 30.9554 39.623C32.3983 39.3573 34.0766 39.2104 35.7679 39.3681C36.4742 39.4329 37.1827 39.5496 37.8761 39.7332C40.9584 40.5475 43.7664 42.66 44.8831 47.2284Z" fill="white"/>
<path d="M30.8841 39.2299L30.5558 39.2904V39.6231C30.5558 39.8412 30.5277 40.0767 30.4694 40.3186C30.1692 41.593 29.0654 43.0618 27.0652 43.1525C24.9938 43.0596 23.8857 41.4936 23.6287 40.1911C23.5898 39.9946 23.5704 39.8023 23.5704 39.6231V39.2904L23.2442 39.2299C20.2915 38.6878 16.1054 38.5063 12.9129 40.7182C10.9279 42.0941 9.58706 44.2195 8.91746 47.0513C9.02978 47.1528 9.14426 47.2522 9.25874 47.3494C9.33218 47.4163 9.40346 47.479 9.4769 47.5416C9.51794 47.5783 9.56114 47.6129 9.60434 47.6496C10.1897 44.8071 11.4549 42.6967 13.3665 41.3727C14.2932 40.7311 15.317 40.3078 16.3711 40.0443C17.2221 39.8326 18.0948 39.7246 18.9523 39.69C20.3131 39.636 21.6372 39.7678 22.7884 39.9622C22.8576 40.6491 23.134 41.4331 23.6287 42.1222C24.3242 43.0963 25.4539 43.8847 27.0501 43.9517H27.0825C28.655 43.8847 29.7739 43.1179 30.4694 42.1632C30.9813 41.4634 31.2665 40.662 31.3377 39.9622C32.4955 39.7656 33.8692 39.6533 35.2948 39.7527C36.148 39.811 37.0207 39.9471 37.8761 40.1868C40.8115 41.0119 43.5353 43.0661 44.5872 47.4855C44.5872 47.4855 44.5829 47.494 44.5807 47.4984C44.6282 47.4552 44.6736 47.4141 44.7189 47.3731C44.7621 47.3342 44.8053 47.2953 44.8485 47.2586C44.8593 47.2478 44.8723 47.2392 44.8831 47.2284C44.9868 47.1376 45.0861 47.047 45.1877 46.9541C43.1011 38.3379 35.3532 38.4091 30.8841 39.2299Z" fill="#1C6229"/>
<path d="M18.9515 39.3684L18.9523 52.7796C18.071 52.5052 17.2113 52.1877 16.3711 51.827L16.3703 39.3684H18.9515Z" fill="#1C6229"/>
<path d="M37.8756 39.3684L37.8761 51.7168C37.038 52.0884 36.1761 52.4167 35.2949 52.7018L35.2944 39.3684H37.8756Z" fill="#1C6229"/>
<path d="M30.0368 31.2358C29.6199 31.5641 29.0842 31.8212 28.4751 31.9832C28.2764 31.4022 27.9956 30.1277 28.6392 29.8145C28.7732 29.7497 28.8876 29.7454 29.0151 29.7973C29.4471 29.9765 29.8618 30.7498 30.0368 31.2358Z" fill="white"/>
<path d="M22.9099 21.8851C22.5492 21.8851 22.2597 22.2998 22.2597 22.8096C22.2597 23.3193 22.5501 23.734 22.9108 23.734C23.2716 23.734 23.5588 23.3193 23.5588 22.8096C23.5588 22.2998 23.2684 21.8851 22.9099 21.8851ZM27.3324 27.3197C27.2827 27.4968 27.1358 27.6242 26.9544 27.6458C26.7297 27.6739 26.5072 27.5227 26.3452 27.2333C26.0688 26.7408 26.5872 24.5073 27.2244 22.7232L26.4727 22.4532C26.2308 23.1314 25.0536 26.5615 25.6476 27.6221C25.9413 28.1469 26.4014 28.4472 26.9004 28.4472C26.95 28.4472 26.9997 28.4429 27.0516 28.4385C27.5527 28.3781 27.9653 28.0217 28.1013 27.5335L27.3324 27.3197ZM30.681 21.8851C30.3225 21.8851 30.0309 22.2998 30.0309 22.8096C30.0309 23.3193 30.3218 23.734 30.6804 23.734C31.0389 23.734 31.3312 23.3193 31.3312 22.8096C31.3312 22.2998 31.0396 21.8851 30.681 21.8851Z" fill="white"/>
<path d="M27.001 0C12.0883 0 0.000976562 12.0874 0.000976562 27C0.000976562 34.9575 3.44186 42.1092 8.91746 47.0513C9.02978 47.1528 9.14426 47.2522 9.25874 47.3494C9.33218 47.4163 9.40346 47.479 9.4769 47.5416C9.51794 47.5783 9.56114 47.6129 9.60434 47.6496C9.64106 47.4703 9.67895 47.2954 9.71999 47.1226C9.73727 47.0535 9.75671 46.9843 9.77399 46.9152C9.80207 46.8051 9.83231 46.6992 9.86039 46.5912C9.88199 46.5178 9.90575 46.4443 9.92735 46.3709C9.95111 46.2888 9.97703 46.2089 10.0029 46.129C10.031 46.0491 10.0569 45.9691 10.085 45.8892C10.1131 45.8115 10.1412 45.7337 10.1693 45.6559C10.1973 45.5782 10.2276 45.5026 10.2578 45.427C10.2881 45.3514 10.3183 45.2758 10.3507 45.2002C10.3809 45.1267 10.4133 45.0533 10.4479 44.9799C10.4781 44.9064 10.5127 44.8351 10.5473 44.7639C10.5775 44.6947 10.6121 44.6278 10.6466 44.563C10.6682 44.5176 10.692 44.4723 10.7157 44.4269C10.7503 44.3599 10.787 44.293 10.8216 44.2282C10.9512 43.9971 11.0873 43.7724 11.232 43.5564C11.273 43.4938 11.3162 43.4333 11.3594 43.3707C11.4026 43.3102 11.4458 43.2497 11.489 43.1914C11.5344 43.1309 11.5797 43.0726 11.6251 43.0143C11.6705 42.9559 11.718 42.8998 11.7633 42.8436C11.8109 42.7853 11.8584 42.7313 11.9081 42.6751C11.9534 42.6211 12.0031 42.565 12.0549 42.5131C12.1521 42.4051 12.2558 42.3015 12.3595 42.1999C12.4589 42.1049 12.5604 42.0099 12.6641 41.9191C12.8865 41.7247 13.1224 41.5411 13.3665 41.3727C14.0642 40.891 14.8154 40.5303 15.593 40.2711C15.7766 40.2084 15.9602 40.1544 16.146 40.1047C16.2194 40.0831 16.2955 40.0637 16.3711 40.0443L16.3711 51.827C17.2113 52.1877 18.071 52.5052 18.9523 52.7796L18.9523 39.69C19.056 39.6857 19.1592 39.6814 19.2629 39.6814C20.5049 39.6576 21.708 39.7807 22.7642 39.9579C22.7729 39.96 22.7798 39.96 22.7884 39.9622C22.7992 40.0745 22.8161 40.1868 22.8398 40.3035C22.8463 40.3488 22.8571 40.3942 22.8679 40.4395C22.8787 40.4957 22.8938 40.5497 22.9068 40.6037C22.95 40.7679 23.0062 40.9342 23.0731 41.1027C23.0947 41.1567 23.1185 41.2128 23.1422 41.2668C23.1574 41.3057 23.1768 41.3467 23.1962 41.3856C23.2481 41.5001 23.3086 41.6146 23.3734 41.7247C23.3993 41.7701 23.4252 41.8155 23.4533 41.8587C23.4684 41.8846 23.4857 41.9105 23.503 41.9364C23.5246 41.9731 23.5462 42.0077 23.5721 42.0423C23.5894 42.0682 23.6092 42.0963 23.6287 42.1222C23.6697 42.1783 23.7103 42.2345 23.7535 42.2907C23.76 42.2993 23.7665 42.3079 23.7751 42.3166C23.8118 42.3619 23.8507 42.4095 23.8896 42.4548C23.9004 42.4678 23.9134 42.4807 23.9242 42.4959C23.9566 42.5326 23.989 42.5693 24.0235 42.6039C24.1423 42.7291 24.2719 42.8501 24.408 42.9646C24.4663 43.0121 24.5246 43.0596 24.5851 43.1028C24.5959 43.1115 24.6067 43.1201 24.6197 43.1287C24.6629 43.1611 24.7082 43.1935 24.7536 43.2216C24.7817 43.2432 24.8119 43.2627 24.8422 43.2799C24.881 43.3059 24.9199 43.3296 24.9588 43.3512C24.9782 43.3642 24.9998 43.3771 25.0236 43.3879C25.0884 43.4247 25.1532 43.4614 25.2202 43.4938C25.2958 43.5305 25.3714 43.5672 25.4491 43.5996C25.5161 43.6299 25.5852 43.6558 25.6565 43.6817C25.717 43.7033 25.7774 43.7249 25.8401 43.7422C25.8552 43.7487 25.8682 43.753 25.8833 43.7573C25.9243 43.7703 25.9654 43.7811 26.0086 43.7919C26.0561 43.807 26.1036 43.8199 26.1533 43.8286C26.19 43.8394 26.2267 43.8459 26.2634 43.8545C26.3131 43.8653 26.3628 43.8761 26.4125 43.8826C26.4406 43.8891 26.4665 43.8934 26.4946 43.8955C26.5702 43.9085 26.6479 43.9193 26.7278 43.9258C26.7386 43.9301 26.7516 43.9301 26.7646 43.9301C26.8574 43.9409 26.9529 43.9474 27.0501 43.9517H27.0825C27.1668 43.9474 27.2506 43.9431 27.3326 43.9344C27.3931 43.9301 27.4514 43.9236 27.5098 43.915C27.5422 43.9107 27.5724 43.9063 27.6026 43.902C27.6545 43.8934 27.7042 43.8869 27.7538 43.8761C27.7906 43.8696 27.8251 43.8631 27.8597 43.8545C27.8942 43.8502 27.9266 43.8415 27.959 43.8329C28.013 43.8221 28.067 43.8091 28.1189 43.794C28.1556 43.7854 28.1902 43.7746 28.2269 43.7638C28.2982 43.7422 28.3694 43.7184 28.4364 43.6947C28.4969 43.6731 28.5574 43.6515 28.6157 43.6255C28.6373 43.6191 28.6567 43.6104 28.6762 43.6018C28.7474 43.5715 28.8187 43.5391 28.8878 43.5046C28.9591 43.47 29.0282 43.4333 29.0952 43.3944C29.106 43.3879 29.1168 43.3836 29.1276 43.375C29.1902 43.3404 29.2507 43.3037 29.309 43.2648C29.3738 43.2238 29.4365 43.1806 29.497 43.1374C29.5639 43.0899 29.6287 43.038 29.6914 42.9883C29.7518 42.9387 29.8102 42.8868 29.8663 42.835C29.9246 42.7831 29.9786 42.7313 30.0326 42.6773C30.0866 42.6233 30.1385 42.5671 30.1882 42.511C30.2378 42.4548 30.2875 42.3987 30.3329 42.3403C30.3804 42.282 30.4262 42.2237 30.4694 42.1632C30.5018 42.12 30.5316 42.0747 30.5618 42.0315C30.6914 41.8414 30.8038 41.6448 30.901 41.4461C30.9031 41.4418 30.9053 41.4375 30.9074 41.4331C30.9312 41.3878 30.9528 41.3424 30.9722 41.2949C30.9852 41.2647 30.9982 41.2344 31.0111 41.2042C31.0306 41.1567 31.05 41.1113 31.0673 41.0638C31.091 41.0055 31.1105 40.9471 31.1299 40.891C31.1558 40.8132 31.1818 40.7355 31.2034 40.6577C31.225 40.5799 31.2444 40.5065 31.2595 40.4309C31.2703 40.3855 31.279 40.3402 31.2876 40.2948C31.2962 40.2581 31.3006 40.2257 31.307 40.1911C31.3114 40.1587 31.3157 40.1263 31.32 40.0939C31.3265 40.0615 31.3308 40.0291 31.333 39.9967C31.3351 39.9838 31.3356 39.973 31.3377 39.9622C32.4955 39.7656 33.8692 39.6533 35.2948 39.7527L35.2949 52.7018C36.1761 52.4167 37.038 52.0884 37.8761 51.7168L37.8761 40.1868C39.9842 40.7787 41.9818 42.0055 43.3296 44.2843C43.3318 44.2865 43.3339 44.2908 43.3339 44.293C43.8631 45.1872 44.2913 46.2435 44.5872 47.4855C44.6325 47.4487 44.6757 47.4098 44.7189 47.3731C44.7621 47.3342 44.8053 47.2953 44.8485 47.2586C44.8593 47.2478 44.8723 47.2392 44.8831 47.2284C44.9868 47.1376 45.0861 47.047 45.1877 46.9541C45.1963 46.9476 45.2045 46.9411 45.2131 46.9325C50.6131 41.9969 54 34.8948 54 27C54 12.0874 41.9115 0 27.001 0ZM30.7433 36.4759C30.564 36.9015 30.469 37.3616 30.469 37.8368L30.4694 40.3186C30.4046 40.5972 30.2983 40.8845 30.1558 41.1675C30.119 41.2387 30.0802 41.31 30.037 41.3813C29.9808 41.4763 29.9182 41.5714 29.8512 41.6643C29.8318 41.6945 29.8102 41.7226 29.7864 41.7507C29.7583 41.7895 29.7302 41.8263 29.7 41.863C29.6482 41.9278 29.592 41.9904 29.5315 42.0509C29.4905 42.0963 29.4451 42.1395 29.3998 42.1827C29.3674 42.2151 29.335 42.2453 29.3026 42.2712C29.1535 42.4051 28.9915 42.5261 28.8122 42.6341C28.7863 42.6514 28.7561 42.6687 28.728 42.6838C28.6913 42.7054 28.6546 42.727 28.6157 42.7464C28.3889 42.8652 28.1426 42.9624 27.8748 43.0315C27.8186 43.0467 27.7603 43.0596 27.702 43.0726H27.6977C27.6329 43.0877 27.5659 43.0985 27.4968 43.1093C27.4493 43.1179 27.3996 43.1244 27.3499 43.1287C27.3175 43.1331 27.283 43.1374 27.2506 43.1395C27.1879 43.146 27.1279 43.1503 27.0652 43.1525C26.9162 43.146 26.771 43.1309 26.6306 43.1093C26.5615 43.1007 26.4946 43.0877 26.4276 43.0726C26.3606 43.0596 26.2937 43.0445 26.2289 43.0251C26.1641 43.0099 26.0993 42.9905 26.0388 42.9689C25.9762 42.9495 25.9157 42.9279 25.8574 42.9041C25.7969 42.8803 25.7386 42.8566 25.6802 42.8285C25.6219 42.8026 25.5658 42.7745 25.5118 42.7464C25.4578 42.7183 25.4038 42.6903 25.3519 42.6579C25.3044 42.6298 25.259 42.6017 25.2137 42.5715C25.1078 42.5002 25.0063 42.4267 24.9113 42.3468C24.8681 42.3144 24.8249 42.2777 24.786 42.2388C24.7817 42.2345 24.7774 42.2323 24.773 42.228C24.732 42.1891 24.691 42.1503 24.6521 42.1114C24.611 42.0725 24.5722 42.0293 24.5354 41.9883C24.4577 41.9019 24.3842 41.8133 24.3194 41.7247C24.2849 41.6794 24.2525 41.634 24.2222 41.5887C24.1574 41.4958 24.1013 41.4029 24.0473 41.31C24.0214 41.2625 23.9954 41.215 23.9717 41.1675C23.922 41.0703 23.8766 40.9752 23.8378 40.878C23.8183 40.8305 23.7989 40.7808 23.7816 40.7333C23.7643 40.6836 23.747 40.6361 23.7319 40.5886C23.6887 40.4547 23.6546 40.3207 23.6287 40.1911L23.6282 38.2558C23.6282 37.6186 23.4576 37.0095 23.1509 36.4759C22.8917 36.0223 22.5353 35.6227 22.099 35.3052C21.2544 34.6875 20.52 33.925 19.9022 33.0307C18.8849 31.5533 18.1807 29.7195 17.8113 27.6048C17.6126 27.7193 17.3837 27.7841 17.1418 27.7841C17.077 27.7841 17.0121 27.7798 16.9495 27.769C16.2497 27.6696 15.7097 27.0281 15.7097 26.2483C15.7097 25.5874 16.1006 25.0258 16.6471 24.8119C16.8005 24.7471 16.9668 24.7147 17.1418 24.7147C17.2973 24.7147 17.4463 24.7407 17.5867 24.7903C17.591 24.4771 17.604 24.1661 17.6256 23.8572C17.6839 23.0429 17.779 22.2502 17.915 21.4855C18.8136 16.375 21.4942 12.6058 27.013 12.6058C32.2165 12.6058 35.167 16.8329 36.0914 21.4855C36.2966 22.5007 36.4025 23.5397 36.4133 24.5571C36.5537 24.5074 36.7027 24.4815 36.8582 24.4815C37.031 24.4815 37.1974 24.5139 37.3486 24.5765C37.8972 24.7882 38.2903 25.3541 38.2903 26.0151C38.2903 26.7603 37.7957 27.3823 37.139 27.5227C37.0483 27.54 36.9533 27.5508 36.8582 27.5508C36.6163 27.5508 36.3874 27.486 36.1886 27.3715C35.7631 29.7864 34.9402 31.7671 33.7003 33.2835C33.2057 33.8861 32.6462 34.4153 32.0198 34.8689C31.4453 35.2858 31.0025 35.8431 30.7433 36.4759ZM40.1933 36.4759H31.7066C31.9054 36.126 32.184 35.8171 32.5274 35.5687C33.845 34.6162 34.8991 33.3504 35.6854 31.7844C36.1886 30.7822 36.5796 29.659 36.8604 28.4148C37.003 28.4148 37.1498 28.3997 37.301 28.3695H37.3183C38.3832 28.1383 39.1543 27.1491 39.1543 26.0151C39.1543 25.0193 38.5582 24.1207 37.6682 23.773C37.5322 23.7168 37.3896 23.6758 37.2427 23.6499C37.1974 22.9176 37.1066 22.194 36.9706 21.4855C36.5796 19.4249 35.8258 17.5025 34.7825 15.9667C32.9011 13.2041 30.2163 11.7418 27.013 11.7418C21.5914 11.7418 18.1051 15.1783 17.0381 21.4855C16.9128 22.2156 16.8221 22.9868 16.7638 23.7947C16.7617 23.8249 16.7595 23.853 16.7573 23.8832C16.6061 23.9091 16.4614 23.9523 16.321 24.0107C15.4376 24.3606 14.8457 25.2591 14.8457 26.2484C14.8457 27.4364 15.6903 28.4559 16.8157 28.6223C16.9172 28.6395 17.0273 28.646 17.1397 28.6482C17.3816 29.7131 17.7098 30.7023 18.1224 31.6073C18.954 33.4411 20.1226 34.9316 21.5914 36.003C21.7815 36.1412 21.9521 36.301 22.099 36.4759H13.8045V21.4186C13.8045 13.8132 19.7122 7.64856 27 7.64856C34.2878 7.64856 40.1933 13.8132 40.1933 21.4186V36.4759Z" fill="#1C6229"/>
<path d="M40.1933 21.4186V36.4759H31.7066C31.9054 36.126 32.184 35.8171 32.5274 35.5687C33.845 34.6162 34.8991 33.3504 35.6854 31.7844C36.1886 30.7822 36.5796 29.659 36.8604 28.4148C37.003 28.4148 37.1498 28.3997 37.301 28.3695H37.3183C38.3832 28.1383 39.1543 27.1491 39.1543 26.0151C39.1543 25.0193 38.5582 24.1207 37.6682 23.773C37.5322 23.7168 37.3896 23.6758 37.2427 23.6499C37.1974 22.9176 37.1066 22.194 36.9706 21.4855C36.5796 19.4249 35.8258 17.5025 34.7825 15.9667C32.9011 13.2041 30.2163 11.7418 27.013 11.7418C21.5914 11.7418 18.1051 15.1783 17.0381 21.4855C16.9128 22.2156 16.8221 22.9868 16.7638 23.7947C16.7617 23.8249 16.7595 23.853 16.7573 23.8832C16.6061 23.9091 16.4614 23.9523 16.321 24.0107C15.4376 24.3606 14.8457 25.2591 14.8457 26.2484C14.8457 27.4364 15.6903 28.4559 16.8157 28.6223C16.9172 28.6395 17.0273 28.646 17.1397 28.6482C17.3816 29.7131 17.7098 30.7023 18.1224 31.6073C18.954 33.4411 20.1226 34.9316 21.5914 36.003C21.7815 36.1412 21.9521 36.301 22.099 36.4759H13.8045V21.4186C13.8045 13.8132 19.7122 7.64856 27 7.64856C34.2878 7.64856 40.1933 13.8132 40.1933 21.4186Z" fill="#A3D657"/>
<path d="M37.3486 24.5765C37.1974 24.5139 37.031 24.4815 36.8582 24.4815C36.7027 24.4815 36.5537 24.5074 36.4133 24.5571C36.4025 23.5397 36.2966 22.5007 36.0914 21.4855C35.167 16.8329 32.2165 12.6058 27.013 12.6058C21.4942 12.6058 18.8136 16.375 17.915 21.4855C17.779 22.2502 17.6839 23.0429 17.6256 23.8572C17.604 24.1661 17.591 24.4771 17.5867 24.7903C17.4463 24.7407 17.2973 24.7147 17.1418 24.7147C16.9668 24.7147 16.8005 24.7471 16.6471 24.8119C16.1006 25.0258 15.7097 25.5874 15.7097 26.2483C15.7097 27.0281 16.2497 27.6696 16.9495 27.769C17.0121 27.7798 17.077 27.7841 17.1418 27.7841C17.3837 27.7841 17.6126 27.7193 17.8113 27.6048C18.1807 29.7195 18.8849 31.5533 19.9022 33.0307C20.52 33.925 21.2544 34.6875 22.099 35.3052C22.5353 35.6227 22.8917 36.0223 23.1509 36.4759C23.4576 37.0095 23.6282 37.6186 23.6282 38.2558L23.6287 40.1911C23.6546 40.3207 23.6887 40.4547 23.7319 40.5886C23.747 40.6361 23.7643 40.6836 23.7816 40.7333C23.7989 40.7808 23.8183 40.8305 23.8378 40.878C23.8766 40.9752 23.922 41.0703 23.9717 41.1675C23.9954 41.215 24.0214 41.2625 24.0473 41.31C24.1013 41.4029 24.1574 41.4958 24.2222 41.5887C24.2525 41.634 24.2849 41.6794 24.3194 41.7247C24.3842 41.8133 24.4577 41.9019 24.5354 41.9883C24.5722 42.0293 24.611 42.0703 24.6521 42.1114C24.691 42.1503 24.732 42.1891 24.773 42.228C24.7774 42.2323 24.7817 42.2345 24.786 42.2388C24.8249 42.2777 24.8681 42.3144 24.9113 42.3468C25.0063 42.4267 25.1078 42.5002 25.2137 42.5715C25.259 42.6017 25.3044 42.6298 25.3519 42.6579C25.4038 42.6903 25.4578 42.7183 25.5118 42.7464C25.5658 42.7745 25.6219 42.8026 25.6802 42.8285C25.7386 42.8566 25.7969 42.8803 25.8574 42.9041C25.9157 42.9279 25.9762 42.9495 26.0388 42.9689C26.0993 42.9905 26.1641 43.0099 26.2289 43.0251C26.2937 43.0445 26.3606 43.0596 26.4276 43.0726C26.4946 43.0877 26.5615 43.0985 26.6306 43.1093C26.771 43.1309 26.9162 43.146 27.0652 43.1525C27.1279 43.1503 27.1879 43.146 27.2506 43.1395C27.283 43.1374 27.3175 43.1331 27.3499 43.1287C27.3996 43.1244 27.4493 43.1179 27.4968 43.1093C27.5659 43.0985 27.6329 43.0877 27.6977 43.0726H27.702C27.7603 43.0596 27.8186 43.0467 27.8748 43.0315C28.1426 42.9624 28.3889 42.8652 28.6157 42.7464C28.6546 42.727 28.6913 42.7054 28.728 42.6838C28.7561 42.6687 28.7863 42.6514 28.8122 42.6341C28.9915 42.5261 29.1535 42.4051 29.3026 42.2712C29.335 42.2431 29.3674 42.2129 29.3998 42.1827C29.4451 42.1395 29.4905 42.0963 29.5315 42.0509C29.592 41.9904 29.6482 41.9278 29.7 41.863C29.7302 41.8263 29.7583 41.7895 29.7864 41.7507C29.8102 41.7226 29.8318 41.6945 29.8512 41.6643C29.9182 41.5714 29.9808 41.4763 30.037 41.3813C30.0802 41.31 30.119 41.2387 30.1558 41.1675C30.2983 40.8845 30.4046 40.5972 30.4694 40.3186L30.469 37.8368C30.469 37.3616 30.564 36.9015 30.7433 36.4759C31.0025 35.8431 31.4453 35.2858 32.0198 34.8689C32.6462 34.4153 33.2057 33.8861 33.7003 33.2835C34.9402 31.7671 35.7631 29.7864 36.1886 27.3715C36.3874 27.486 36.6163 27.5508 36.8582 27.5508C36.9533 27.5508 37.0483 27.54 37.139 27.5227C37.7957 27.3823 38.2903 26.7603 38.2903 26.0151C38.2903 25.3541 37.8972 24.7882 37.3486 24.5765ZM30.681 21.8851C31.0396 21.8851 31.3312 22.2998 31.3312 22.8096C31.3312 23.3193 31.0389 23.734 30.6804 23.734C30.3218 23.734 30.0309 23.3193 30.0309 22.8096C30.0309 22.2998 30.3225 21.8851 30.681 21.8851ZM26.4727 22.4532L27.2244 22.7232C26.5872 24.5073 26.0688 26.7408 26.3452 27.2333C26.5072 27.5227 26.7297 27.6739 26.9544 27.6458C27.1358 27.6242 27.2827 27.4968 27.3324 27.3197L28.1013 27.5335C27.9653 28.0217 27.5527 28.3781 27.0516 28.4385C26.9997 28.4429 26.95 28.4472 26.9004 28.4472C26.4014 28.4472 25.9413 28.1469 25.6476 27.6221C25.0536 26.5615 26.2308 23.1314 26.4727 22.4532ZM22.9115 21.8851C23.2701 21.8851 23.56 22.2998 23.56 22.8096C23.56 23.3193 23.2694 23.734 22.9108 23.734C22.5523 23.734 22.2614 23.3193 22.2614 22.8096C22.2614 22.2998 22.5508 21.8851 22.9115 21.8851ZM27.0004 32.9702C24.3631 32.9702 22.2182 31.428 22.2182 29.5336H23.0152C23.0152 30.9873 24.8037 32.171 27.0004 32.171C27.2099 32.171 27.4151 32.1602 27.616 32.1408C27.2877 31.1277 27.13 29.5855 28.264 29.0368C28.6183 28.8662 28.9941 28.8532 29.3483 29.0001C29.9963 29.2701 30.4456 30.0305 30.6832 30.5381C30.8776 30.227 30.9835 29.8879 30.9835 29.5336H31.7827C31.7827 31.428 29.6378 32.9702 27.0004 32.9702Z" fill="white"/>
<path d="M30.0378 31.2358C29.6209 31.5641 29.0852 31.8211 28.4761 31.9831C28.2774 31.4021 27.9966 30.1277 28.6402 29.8145C28.7742 29.7497 28.8886 29.7454 29.0161 29.7972C29.4481 29.9765 29.8628 30.7498 30.0378 31.2358Z" fill="#A3D657"/>
<path d="M30.9835 29.5336C30.9835 29.8879 30.8776 30.227 30.6832 30.5381C30.4456 30.0305 29.9963 29.2701 29.3483 29.0001C28.9941 28.8532 28.6183 28.8662 28.264 29.0368C27.13 29.5855 27.2877 31.1277 27.616 32.1408C27.4151 32.1602 27.2099 32.171 27.0004 32.171C24.8037 32.171 23.0152 30.9873 23.0152 29.5336H22.2182C22.2182 31.428 24.3631 32.9702 27.0004 32.9702C29.6378 32.9702 31.7827 31.428 31.7827 29.5336H30.9835ZM28.4761 31.9831C28.2774 31.4021 27.9966 30.1277 28.6402 29.8145C28.7742 29.7497 28.8886 29.7454 29.0161 29.7972C29.4481 29.9765 29.8628 30.7498 30.0378 31.2358C29.6209 31.5641 29.0852 31.8211 28.4761 31.9831Z" fill="#1C6229"/>
<path d="M28.1013 27.5335C27.9653 28.0217 27.5527 28.3781 27.0516 28.4385C26.9997 28.4429 26.95 28.4472 26.9004 28.4472C26.4014 28.4472 25.9413 28.1469 25.6476 27.6221C25.0536 26.5615 26.2308 23.1314 26.4727 22.4532L27.2244 22.7232C26.5872 24.5073 26.0688 26.7408 26.3452 27.2333C26.5072 27.5227 26.7297 27.6739 26.9544 27.6458C27.1358 27.6242 27.2827 27.4968 27.3324 27.3197L28.1013 27.5335Z" fill="#1C6229"/>
<path d="M23.56 22.8096C23.56 23.3193 23.2694 23.734 22.9108 23.734C22.5523 23.734 22.2614 23.3193 22.2614 22.8096C22.2614 22.2998 22.5508 21.8851 22.9115 21.8851C23.2723 21.8851 23.56 22.2998 23.56 22.8096Z" fill="#1C6229"/>
<path d="M31.3312 22.8096C31.3312 23.3193 31.0389 23.734 30.6804 23.734C30.3218 23.734 30.0309 23.3193 30.0309 22.8096C30.0309 22.2998 30.3225 21.8851 30.681 21.8851C31.0396 21.8851 31.3312 22.2998 31.3312 22.8096Z" fill="#1C6229"/>
<path d="M16.3711 40.0443L16.3711 51.827C13.9216 50.7751 11.6585 49.3755 9.64754 47.6842C9.63242 47.6734 9.61946 47.6626 9.60434 47.6496C9.64106 47.4703 9.67895 47.2954 9.71999 47.1226C9.73727 47.0535 9.75671 46.9843 9.77399 46.9152C9.80207 46.8051 9.83231 46.6992 9.86039 46.5912C9.88199 46.5178 9.90575 46.4443 9.92735 46.3709C9.95111 46.2888 9.97703 46.2089 10.0029 46.129C10.031 46.0491 10.0569 45.9691 10.085 45.8892C10.1131 45.8115 10.1412 45.7337 10.1693 45.6559C10.1973 45.5782 10.2276 45.5026 10.2578 45.427C10.2881 45.3514 10.3183 45.2758 10.3507 45.2002C10.3809 45.1267 10.4133 45.0533 10.4479 44.9799C10.4803 44.9064 10.5127 44.8351 10.5473 44.7639C10.5797 44.6947 10.6121 44.6278 10.6466 44.563C10.6682 44.5176 10.692 44.4723 10.7157 44.4269C10.7503 44.3599 10.787 44.293 10.8216 44.2282C10.9512 43.9971 11.0873 43.7724 11.232 43.5564C11.273 43.4938 11.3162 43.4333 11.3594 43.3707C11.4026 43.3102 11.4458 43.2497 11.489 43.1914C11.5344 43.1309 11.5797 43.0726 11.6251 43.0143C11.6705 42.9559 11.718 42.8998 11.7633 42.8436C11.8109 42.7853 11.8584 42.7313 11.9081 42.6751C11.9556 42.6211 12.0053 42.5671 12.0549 42.5131C12.1521 42.4051 12.2558 42.3015 12.3595 42.1999C12.4589 42.1049 12.5604 42.0099 12.6641 41.9191C12.8865 41.7247 13.1224 41.5411 13.3665 41.3727C14.0642 40.891 14.8154 40.5303 15.593 40.2711C15.7766 40.2106 15.9602 40.1544 16.146 40.1047C16.2194 40.0831 16.2955 40.0637 16.3711 40.0443Z" fill="white"/>
<path d="M15.593 40.2711C15.7766 40.2106 15.9602 40.1544 16.146 40.1047C15.9602 40.1544 15.7766 40.2084 15.593 40.2711Z" fill="white"/>
<path d="M35.2962 39.7527V52.7019C32.6826 53.5443 29.8941 54 27.0018 54C24.1096 54 21.496 53.5723 18.9537 52.7796V39.69C19.0573 39.6857 19.161 39.6814 19.2647 39.6814C20.5067 39.6576 21.7098 39.7807 22.7661 39.9579C22.7747 39.96 22.7812 39.96 22.7898 39.9622C22.8006 40.0745 22.8179 40.1868 22.8417 40.3035C22.8481 40.3488 22.8589 40.3942 22.8697 40.4395C22.8805 40.4957 22.8957 40.5497 22.9086 40.6037C22.9518 40.7679 23.008 40.9342 23.0749 41.1027C23.0965 41.1567 23.1203 41.2128 23.1441 41.2668C23.1592 41.3057 23.1786 41.3467 23.1981 41.3856C23.2499 41.5001 23.3104 41.6146 23.3752 41.7247C23.4011 41.7701 23.427 41.8155 23.4551 41.8587C23.4702 41.8846 23.4875 41.9105 23.5048 41.9364C23.5264 41.9731 23.548 42.0077 23.5739 42.0423C23.5912 42.0682 23.6106 42.0963 23.6301 42.1222C23.6711 42.1783 23.7121 42.2345 23.7553 42.2907C23.7618 42.2993 23.7683 42.3079 23.7769 42.3166C23.8137 42.3619 23.8525 42.4095 23.8914 42.4548C23.9022 42.4678 23.9152 42.4807 23.926 42.4959C23.9584 42.5326 23.9908 42.5693 24.0253 42.6039C24.1441 42.7291 24.2737 42.8501 24.4098 42.9646C24.4681 43.0121 24.5265 43.0596 24.5869 43.1028C24.5977 43.1115 24.6085 43.1201 24.6215 43.1287C24.6647 43.1611 24.7101 43.1935 24.7554 43.2216C24.7835 43.2432 24.8137 43.2627 24.844 43.2799C24.8829 43.3059 24.9217 43.3296 24.9606 43.3512C24.9801 43.3642 25.0017 43.3771 25.0254 43.3879C25.0902 43.4247 25.155 43.4614 25.222 43.4938C25.2976 43.5305 25.3732 43.5672 25.4509 43.5996C25.5179 43.6299 25.587 43.6558 25.6583 43.6817C25.7188 43.7033 25.7793 43.7249 25.8419 43.7422C25.857 43.7487 25.87 43.753 25.8851 43.7573C25.9261 43.7703 25.9672 43.7811 26.0104 43.7919C26.0579 43.807 26.1054 43.8199 26.1551 43.8286C26.1918 43.8394 26.2285 43.8459 26.2653 43.8545C26.3149 43.8653 26.3646 43.8761 26.4143 43.8826C26.4424 43.8891 26.4683 43.8934 26.4964 43.8955C26.572 43.9085 26.6497 43.9193 26.7297 43.9258C26.7405 43.9301 26.7534 43.9301 26.7664 43.9301C26.8593 43.9409 26.9543 43.9474 27.0515 43.9517H27.0839C27.1681 43.9474 27.2524 43.9431 27.3345 43.9344C27.3949 43.9301 27.4533 43.9236 27.5116 43.915C27.544 43.9107 27.5742 43.9063 27.6045 43.902C27.6563 43.8934 27.706 43.8869 27.7557 43.8761C27.7924 43.8696 27.8269 43.8631 27.8615 43.8545C27.8961 43.8502 27.9285 43.8415 27.9609 43.8329C28.0149 43.8221 28.0689 43.8091 28.1207 43.794C28.1574 43.7854 28.192 43.7746 28.2287 43.7638C28.3 43.7422 28.3713 43.7184 28.4382 43.6947C28.4987 43.6731 28.5592 43.6515 28.6175 43.6255C28.6391 43.6191 28.6585 43.6104 28.678 43.6018C28.7493 43.5715 28.8205 43.5391 28.8897 43.5046C28.9609 43.47 29.0301 43.4333 29.097 43.3944C29.1078 43.3879 29.1186 43.3836 29.1294 43.375C29.1921 43.3404 29.2525 43.3037 29.3109 43.2648C29.3757 43.2238 29.4383 43.1806 29.4988 43.1374C29.5657 43.0899 29.6305 43.038 29.6932 42.9883C29.7537 42.9387 29.812 42.8868 29.8681 42.835C29.9265 42.7831 29.9805 42.7313 30.0345 42.6773C30.0885 42.6233 30.1403 42.5671 30.19 42.511C30.2397 42.4548 30.2893 42.3987 30.3347 42.3403C30.3822 42.282 30.4276 42.2237 30.4708 42.1632C30.5032 42.12 30.5334 42.0747 30.5637 42.0315C30.6933 41.8414 30.8056 41.6448 30.9028 41.4461C30.9049 41.4418 30.9071 41.4375 30.9093 41.4331C30.933 41.3878 30.9546 41.3424 30.9741 41.2949C30.987 41.2647 31 41.2344 31.0129 41.2042C31.0324 41.1567 31.0518 41.1113 31.0691 41.0638C31.0929 41.0055 31.1123 40.9471 31.1317 40.891C31.1577 40.8132 31.1836 40.7355 31.2052 40.6577C31.2268 40.5799 31.2462 40.5065 31.2613 40.4309C31.2721 40.3855 31.2808 40.3402 31.2894 40.2948C31.2981 40.2581 31.3024 40.2257 31.3089 40.1911C31.3132 40.1587 31.3175 40.1263 31.3218 40.0939C31.3283 40.0615 31.3326 40.0291 31.3348 39.9967C31.3369 39.9838 31.3369 39.973 31.3391 39.9622C32.4969 39.7656 33.8706 39.6533 35.2962 39.7527Z" fill="white"/>
<path d="M44.5872 47.4855C44.5872 47.4855 44.5727 47.5006 44.5663 47.5049C42.8923 48.9435 41.0361 50.1789 39.0381 51.1725C38.6558 51.3626 38.2692 51.5462 37.8761 51.7168L37.8761 40.1868C39.9842 40.7787 41.9829 42.0056 43.3307 44.2844C43.3329 44.2865 43.3351 44.2909 43.3351 44.293C43.8643 45.1873 44.2913 46.2435 44.5872 47.4855Z" fill="white"/>
<path d="M44.7199 47.373C44.6746 47.4141 44.6292 47.4551 44.5817 47.4983C44.5839 47.494 44.586 47.4918 44.5882 47.4875C44.6335 47.4486 44.6767 47.4097 44.7199 47.373Z" fill="white"/>
<path d="M44.5872 47.4855C44.5872 47.4855 44.5839 47.494 44.5817 47.4983C44.6292 47.4551 44.6746 47.4141 44.7199 47.373C44.6767 47.4097 44.6325 47.4487 44.5872 47.4855Z" fill="#1C6229"/>
</svg>
