<svg width="24" height="24" viewBox="0 0 24 24" fill="none" xmlns="http://www.w3.org/2000/svg">
<path d="M8.93953 2.69141L8.67647 3.25H5.16912C4.52245 3.25 4 3.80859 4 4.5C4 5.19141 4.52245 5.75 5.16912 5.75H19.1986C19.8452 5.75 20.3677 5.19141 20.3677 4.5C20.3677 3.80859 19.8452 3.25 19.1986 3.25H15.6912L15.4281 2.69141C15.2309 2.26562 14.8253 2 14.3833 2H9.98443C9.54235 2 9.13681 2.26562 8.93953 2.69141ZM19.1986 7H5.16912L5.94366 20.2422C6.00212 21.2305 6.76935 22 7.69369 22H16.674C17.5983 22 18.3656 21.2305 18.424 20.2422L19.1986 7Z" fill="#1C6229"/>
</svg>
