<svg width="25" height="24" viewBox="0 0 25 24" fill="none" xmlns="http://www.w3.org/2000/svg">
<path d="M20.8832 19.2863L17.4832 15.8963C18.5802 14.4988 19.1754 12.773 19.1732 10.9963C19.1732 9.41409 18.704 7.86737 17.825 6.55178C16.9459 5.23619 15.6965 4.21081 14.2347 3.60531C12.7729 2.99981 11.1643 2.84138 9.6125 3.15006C8.06065 3.45874 6.63519 4.22067 5.51637 5.33949C4.39755 6.45831 3.63562 7.88377 3.32694 9.43562C3.01826 10.9874 3.17669 12.596 3.78219 14.0578C4.38769 15.5196 5.41307 16.769 6.72866 17.6481C8.04425 18.5271 9.59097 18.9963 11.1732 18.9963C12.9499 18.9985 14.6757 18.4033 16.0732 17.3063L19.4632 20.7063C19.5562 20.8 19.6668 20.8744 19.7886 20.9252C19.9105 20.976 20.0412 21.0021 20.1732 21.0021C20.3052 21.0021 20.4359 20.976 20.5578 20.9252C20.6796 20.8744 20.7902 20.8 20.8832 20.7063C20.9769 20.6133 21.0513 20.5027 21.1021 20.3809C21.1529 20.259 21.179 20.1283 21.179 19.9963C21.179 19.8643 21.1529 19.7336 21.1021 19.6117C21.0513 19.4899 20.9769 19.3793 20.8832 19.2863ZM5.17322 10.9963C5.17322 9.80966 5.52512 8.64962 6.18441 7.66292C6.84369 6.67623 7.78077 5.90719 8.87712 5.45307C9.97348 4.99894 11.1799 4.88012 12.3437 5.11163C13.5076 5.34314 14.5767 5.91459 15.4158 6.7537C16.255 7.59282 16.8264 8.66192 17.0579 9.8258C17.2894 10.9896 17.1706 12.196 16.7165 13.2924C16.2624 14.3888 15.4933 15.3258 14.5066 15.9851C13.5199 16.6444 12.3599 16.9963 11.1732 16.9963C9.58192 16.9963 8.0558 16.3642 6.93058 15.2389C5.80536 14.1137 5.17322 12.5876 5.17322 10.9963Z" fill="#1C6229"/>
</svg>
