<svg width="40" height="40" viewBox="0 0 40 40" fill="none" xmlns="http://www.w3.org/2000/svg">
<mask id="mask0_2011_669" style="mask-type:alpha" maskUnits="userSpaceOnUse" x="0" y="0" width="40" height="40">
<circle cx="20" cy="20" r="20" transform="matrix(1 0 0 -1 0 40)" fill="#7676B6"/>
</mask>
<g mask="url(#mask0_2011_669)">
<circle cx="20" cy="20" r="20" transform="matrix(1 0 0 -1 0 40)" fill="#1C6229"/>
<path d="M5.91992 34.5999C5.91992 31.1222 8.80276 28.3027 12.3588 28.3027H16.0252V28.7931C16.0252 30.7367 17.5571 32.4314 19.5429 32.4899C21.5977 32.5499 23.2844 30.9392 23.2844 28.9416V28.3027H27.5535C31.1095 28.3027 33.9923 31.1222 33.9923 34.5999V47.2454L6.00426 46.0966L5.91992 34.5999Z" fill="white"/>
<path d="M34.2736 47.5374L5.71966 46.3661L5.63379 34.6025C5.63379 30.9778 8.65004 28.0279 12.3563 28.0279H16.3064V28.7942C16.3064 30.6268 17.7617 32.161 19.5496 32.2135C20.4605 32.2405 21.3284 31.9136 21.9832 31.2912C22.6379 30.6688 22.9998 29.835 22.9998 28.9427V28.0264H27.5526C31.2589 28.0264 34.2751 30.9763 34.2751 34.601V47.5359L34.2736 47.5374ZM6.28243 45.8337L33.7062 46.9585V34.601C33.7062 31.2807 30.9445 28.5798 27.5495 28.5798H23.5641V28.9412C23.5641 29.985 23.1424 30.9598 22.3757 31.6871C21.609 32.4145 20.6 32.7954 19.5312 32.7654C17.4396 32.7039 15.7391 30.9223 15.7391 28.7912V28.5783H12.3563C8.96286 28.5783 6.20116 31.2792 6.19962 34.598L6.28243 45.8307V45.8337Z" fill="#1C6229"/>
<path d="M27.5985 17.6089C27.5985 17.6089 27.5954 17.6089 27.5939 17.6089C27.5816 17.1245 27.5494 16.4436 27.505 16.1122C27.3056 13.6359 24.8152 11.8516 19.63 11.8516C14.4448 11.8516 11.9123 13.9928 11.6279 16.1122C11.5834 16.4436 11.5512 17.1245 11.5389 17.6089C11.5374 17.6089 11.5359 17.6089 11.5343 17.6089C10.8443 17.6089 10.2861 18.1548 10.2861 18.8297C10.2861 19.5045 10.8443 20.0504 11.5343 20.0504C11.6095 20.0504 11.6831 20.0414 11.7552 20.0279C12.2274 22.0645 13.4665 23.5147 15.532 25.3938C15.8249 25.6608 15.9966 26.0357 15.9966 26.4271V28.9256C15.9966 30.8692 17.5285 32.5638 19.5143 32.6223C21.5691 32.6823 23.2558 31.0716 23.2558 29.0741V26.3176C23.2558 25.9517 23.4031 25.6023 23.6622 25.3383C25.2294 23.7546 26.7015 22.123 27.3056 20.0129C27.3992 20.0354 27.4958 20.0489 27.5954 20.0489C28.2855 20.0489 28.8436 19.503 28.8436 18.8282C28.8436 18.1533 28.2855 17.6074 27.5954 17.6074L27.5985 17.6089Z" fill="white"/>
<path d="M19.6316 32.903C19.5917 32.903 19.5503 32.903 19.5105 32.9015C17.4189 32.84 15.7183 31.0569 15.7183 28.9273V26.4288C15.7183 26.1169 15.5818 25.8154 15.3441 25.598C13.3491 23.7834 12.0749 22.3212 11.5443 20.3281H11.5397C10.6948 20.3281 10.0078 19.6562 10.0078 18.8299C10.0078 18.095 10.5522 17.4817 11.2683 17.3557C11.2836 16.8983 11.3128 16.3644 11.3511 16.0779C11.8725 12.1412 14.8513 11.8516 19.6295 11.8516C24.4076 11.8516 27.268 12.1412 27.7894 16.0779C27.8277 16.3629 27.8569 16.8968 27.8722 17.3557C28.5883 17.4817 29.1327 18.095 29.1327 18.8299C29.1327 19.6562 28.4457 20.3281 27.6008 20.3281C27.5717 20.3281 27.541 20.3281 27.5119 20.3251C26.8433 22.4096 25.3497 24.0398 23.87 25.5335C23.6584 25.7465 23.5434 26.0254 23.5434 26.3193V29.0758C23.5434 30.1196 23.1217 31.0944 22.355 31.8217C21.6189 32.5206 20.6559 32.9015 19.6316 32.9015V32.903ZM11.9752 19.7117L12.035 19.9696C12.4935 21.9447 13.7356 23.3814 15.7275 25.1931C16.0802 25.514 16.2826 25.9654 16.2826 26.4288V28.9273C16.2826 30.7599 17.7378 32.2941 19.5258 32.3466C20.4412 32.3736 21.3046 32.0452 21.9593 31.4243C22.6141 30.8019 22.976 29.9681 22.976 29.0758V26.3193C22.976 25.8814 23.1493 25.4645 23.4621 25.1481C24.9449 23.6499 26.4431 22.0137 27.0365 19.9396L27.1101 19.6832L27.3754 19.7447C27.4582 19.7642 27.5318 19.7732 27.5993 19.7732C28.1314 19.7732 28.5638 19.3503 28.5638 18.8299C28.5638 18.3095 28.1421 17.8971 27.6192 17.8866H27.3171L27.311 17.6166C27.2987 17.1337 27.2665 16.4679 27.2251 16.1499C26.7874 12.7886 22.7807 12.4064 19.628 12.4064C16.4752 12.4064 12.2221 12.4064 11.9123 16.1499C11.8725 16.4559 11.8387 17.1202 11.8265 17.6166L11.8203 17.8866H11.5198C10.9969 17.8971 10.5752 18.3155 10.5752 18.8299C10.5752 19.3443 11.0076 19.7732 11.5397 19.7732C11.5888 19.7732 11.6424 19.7672 11.7114 19.7552L11.9783 19.7087L11.9752 19.7117Z" fill="#1C6229"/>
<path d="M34.2736 34.7324H33.7062C33.7062 31.4121 30.9445 28.7111 27.5495 28.7111H23.5641V29.0726C23.5641 30.1163 23.1424 31.0911 22.3757 31.8185C21.609 32.5459 20.5985 32.9283 19.5312 32.8968C17.4396 32.8353 15.7391 31.0522 15.7391 28.9226V28.7096H12.3563C8.96132 28.7096 6.19962 31.4106 6.19962 34.7309H5.63379C5.63379 31.1076 8.65004 28.1577 12.3563 28.1577H16.3064V28.9241C16.3064 30.7567 17.7617 32.2909 19.5496 32.3434C20.4651 32.3689 21.3284 32.042 21.9832 31.4211C22.6379 30.7987 22.9998 29.9649 22.9998 29.0726V28.1562H27.5526C31.2589 28.1562 34.2751 31.1061 34.2751 34.7309L34.2736 34.7324Z" fill="#1C6229"/>
<path d="M15.901 16.0097C16.1678 16.0097 16.384 15.7089 16.384 15.3379C16.384 14.9668 16.1678 14.666 15.901 14.666C15.6342 14.666 15.418 14.9668 15.418 15.3379C15.418 15.7089 15.6342 16.0097 15.901 16.0097Z" fill="#1C6229"/>
<path d="M22.0983 16.0097C22.365 16.0097 22.5813 15.7089 22.5813 15.3379C22.5813 14.9668 22.365 14.666 22.0983 14.666C21.8315 14.666 21.6152 14.9668 21.6152 15.3379C21.6152 15.7089 21.8315 16.0097 22.0983 16.0097Z" fill="#1C6229"/>
<path d="M19.5917 22.2837C18.6962 22.2837 17.9678 21.6704 17.9678 20.916H18.4753C18.4753 21.3959 18.9768 21.7873 19.5917 21.7873C20.2066 21.7873 20.708 21.3974 20.708 20.916H21.2156C21.2156 21.6704 20.4872 22.2837 19.5917 22.2837Z" fill="#1C6229"/>
<path d="M19.338 19.4368C18.9945 19.4368 18.6771 19.2343 18.4747 18.8789C18.0699 18.1725 18.5161 15.764 18.6096 15.2871L19.108 15.3801C18.9056 16.4134 18.674 18.21 18.9178 18.6344C19.039 18.8459 19.2107 18.9569 19.3809 18.9359C19.5205 18.9194 19.6355 18.8234 19.6723 18.6899L20.1615 18.8234C20.0679 19.1518 19.7858 19.3888 19.4407 19.4293C19.4055 19.4338 19.3717 19.4353 19.338 19.4353V19.4368Z" fill="#1C6229"/>
<path d="M14.1889 28.4434H12.3564V46.6421H14.1889V28.4434Z" fill="#1C6229"/>
<path d="M27.6235 28.4434H25.791V46.6421H27.6235V28.4434Z" fill="#1C6229"/>
<path d="M32.5929 12.6702C32.5929 11.0865 30.6963 11.1209 27.738 10.2008C27.5161 7.55153 23.9773 4 19.63 4C15.2826 4 11.7438 7.55153 11.5219 10.2008C8.56363 11.1209 6.66699 11.0865 6.66699 12.6702C6.66699 14.2539 8.48164 15.2148 11.4818 16.1337C12.053 12.5132 15.1699 11.8512 19.2596 11.8512C23.3493 11.8512 27.1669 12.5119 27.738 16.1337C30.7382 15.2148 32.5929 14.2654 32.5929 12.6702Z" fill="#A3D657"/>
</g>
</svg>
