<svg width="22" height="18" viewBox="0 0 22 18" fill="none" xmlns="http://www.w3.org/2000/svg">
<g clip-path="url(#clip0_2011_1597)">
<path d="M18.7 4.35417C18.7 3.19937 18.2364 2.09187 17.4113 1.27531C16.5861 0.458741 15.467 0 14.3 0C13.133 0 12.0139 0.458741 11.1887 1.27531C10.3636 2.09187 9.9 3.19937 9.9 4.35417C9.9 5.50896 10.3636 6.61646 11.1887 7.43303C12.0139 8.24959 13.133 8.70833 14.3 8.70833C15.467 8.70833 16.5861 8.24959 17.4113 7.43303C18.2364 6.61646 18.7 5.50896 18.7 4.35417ZM22 16.4064C22 13.0557 19.2569 10.3411 15.8709 10.3411H12.7291C9.34312 10.3411 6.6 13.0557 6.6 16.4064C6.6 16.9642 7.05719 17.4167 7.62094 17.4167H20.9791C21.5428 17.4167 22 16.9642 22 16.4064ZM4.675 10.6133V8.4362H6.875C7.33219 8.4362 7.7 8.07222 7.7 7.61979C7.7 7.16737 7.33219 6.80339 6.875 6.80339H4.675V4.6263C4.675 4.17388 4.30719 3.8099 3.85 3.8099C3.39281 3.8099 3.025 4.17388 3.025 4.6263V6.80339H0.824999C0.367811 6.80339 0 7.16737 0 7.61979C0 8.07222 0.367811 8.4362 0.824999 8.4362H3.025V10.6133C3.025 11.0657 3.39281 11.4297 3.85 11.4297C4.30719 11.4297 4.675 11.0657 4.675 10.6133Z" fill="white"/>
</g>
<defs>
<clipPath id="clip0_2011_1597">
<rect width="22" height="17.4167" fill="white" transform="matrix(-1 0 0 1 22 0)"/>
</clipPath>
</defs>
</svg>
