<svg width="24" height="24" viewBox="0 0 24 24" fill="none" xmlns="http://www.w3.org/2000/svg">
<path fill-rule="evenodd" clip-rule="evenodd" d="M20.6231 12.3868C18.8807 15.6468 15.5763 17.6719 12.0012 17.6719C8.4237 17.6719 5.11932 15.6468 3.37686 12.3868C3.24266 12.1337 3.24266 11.8661 3.37686 11.6132C5.11932 8.35325 8.4237 6.32837 12.0012 6.32837C15.5763 6.32837 18.8807 8.35325 20.6231 11.6132C20.7597 11.8661 20.7597 12.1337 20.6231 12.3868ZM21.7362 10.9668C19.7693 7.28619 16.0391 5 12.0012 5C7.96088 5 4.23071 7.28619 2.2638 10.9668C1.91207 11.6236 1.91207 12.3764 2.2638 13.0327C4.23071 16.7133 7.96088 19 12.0012 19C16.0391 19 19.7693 16.7133 21.7362 13.0327C22.0879 12.3765 22.0879 11.6236 21.7362 10.9668ZM12.0012 14.7249C13.4428 14.7249 14.616 13.5026 14.616 11.9999C14.616 10.4972 13.4428 9.27492 12.0012 9.27492C10.5572 9.27492 9.38401 10.4972 9.38401 11.9999C9.38401 13.5026 10.5572 14.7249 12.0012 14.7249ZM12.0012 7.94655C9.85374 7.94655 8.109 9.76506 8.109 11.9999C8.109 14.2353 9.85378 16.0531 12.0012 16.0531C14.1463 16.0531 15.891 14.2352 15.891 11.9999C15.891 9.76506 14.1463 7.94655 12.0012 7.94655Z" fill="#1C6229"/>
</svg>
